<?xml version="1.0" encoding="utf-8"?>
<!-- Generator: Adobe Illustrator 25.1.0, SVG Export Plug-In . SVG Version: 6.00 Build 0)  -->
<!DOCTYPE svg PUBLIC "-//W3C//DTD SVG 1.1//EN" "http://www.w3.org/Graphics/SVG/1.1/DTD/svg11.dtd" [
	<!ENTITY ns_extend "http://ns.adobe.com/Extensibility/1.0/">
	<!ENTITY ns_ai "http://ns.adobe.com/AdobeIllustrator/10.0/">
	<!ENTITY ns_graphs "http://ns.adobe.com/Graphs/1.0/">
	<!ENTITY ns_vars "http://ns.adobe.com/Variables/1.0/">
	<!ENTITY ns_imrep "http://ns.adobe.com/ImageReplacement/1.0/">
	<!ENTITY ns_sfw "http://ns.adobe.com/SaveForWeb/1.0/">
	<!ENTITY ns_custom "http://ns.adobe.com/GenericCustomNamespace/1.0/">
	<!ENTITY ns_adobe_xpath "http://ns.adobe.com/XPath/1.0/">
]>
<svg version="1.1" id="Layer_1" xmlns:x="&ns_extend;" xmlns:i="&ns_ai;" xmlns:graph="&ns_graphs;"
	 xmlns="http://www.w3.org/2000/svg" xmlns:xlink="http://www.w3.org/1999/xlink" x="0px" y="0px" viewBox="0 0 2540 775.3"
	 style="enable-background:new 0 0 2540 775.3;" xml:space="preserve">
<style type="text/css">
	.st0{fill:#FFFFFF;}
	.st1{fill:#A6A6A6;}
	.st2{fill:url(#SVGID_1_);}
</style>
<metadata>
	<sfw  xmlns="&ns_sfw;">
		<slices></slices>
		<sliceSourceBounds  bottomLeftOrigin="true" height="775.3" width="2540" x="0" y="0"></sliceSourceBounds>
	</sfw>
</metadata>
<path class="st0" d="M2440.7,775.3H99.3C44.7,775.3,0,730.6,0,676V99.3C0,44.7,44.7,0,99.3,0h2341.4c54.6,0,99.3,44.7,99.3,99.3V676
	C2540,730.6,2495.3,775.3,2440.7,775.3z"/>
<g transform="scale(4.00216 4.0011)">
	<path class="st0" d="M625.7,167.9c0,9.8-7.9,17.7-17.7,17.7l0,0H27c-9.8,0-17.8-7.9-17.8-17.7V26.5c0-9.8,8-17.8,17.8-17.8h581
		c9.8,0,17.8,7.9,17.8,17.8l0,0L625.7,167.9L625.7,167.9z"/>
	<path class="st1" d="M607.9,189.8h-581C14.8,189.8,5,180,5,167.9V26.5C5,14.4,14.8,4.6,26.9,4.6h581c12.1,0,21.9,9.8,21.9,21.9
		v141.4C629.8,180,620,189.8,607.9,189.8L607.9,189.8z"/>
	<path d="M625.7,167.9c0,9.8-7.9,17.7-17.7,17.7l0,0H27c-9.8,0-17.8-7.9-17.8-17.7V26.5c0-9.8,8-17.8,17.8-17.8h581
		c9.8,0,17.8,7.9,17.8,17.8l0,0L625.7,167.9L625.7,167.9z"/>
	<path class="st0" d="M144.5,96.2c-0.1-14.9,12.2-22.2,12.8-22.5c-7-10.2-17.8-11.6-21.7-11.7c-9.1-1-17.9,5.5-22.6,5.5
		s-11.9-5.4-19.6-5.2c-9.9,0.2-19.2,5.9-24.3,14.8c-10.5,18.2-2.7,44.9,7.4,59.5c5,7.2,10.9,15.2,18.6,14.9
		c7.5-0.3,10.3-4.8,19.4-4.8c9,0,11.6,4.8,19.5,4.6c8.1-0.1,13.2-7.2,18-14.5c5.8-8.2,8.1-16.4,8.2-16.8
		C160.2,120,144.7,114.1,144.5,96.2L144.5,96.2z M129.7,52.3c4-5.1,6.8-11.9,6-18.9c-5.9,0.3-13.2,4.1-17.4,9
		c-3.7,4.4-7.1,11.5-6.2,18.2C118.7,61.1,125.5,57.3,129.7,52.3L129.7,52.3z"/>
	
		<linearGradient id="SVGID_1_" gradientUnits="userSpaceOnUse" x1="206.4191" y1="74.1405" x2="206.4191" y2="38.0956" gradientTransform="matrix(296.8586 0 0 296.6199 -60814.0273 -21801.3047)">
		<stop  offset="0" style="stop-color:#1A1A1A;stop-opacity:0.1"/>
		<stop  offset="0.123" style="stop-color:#212121;stop-opacity:0.151"/>
		<stop  offset="0.308" style="stop-color:#353535;stop-opacity:0.227"/>
		<stop  offset="0.532" style="stop-color:#575757;stop-opacity:0.318"/>
		<stop  offset="0.783" style="stop-color:#858585;stop-opacity:0.421"/>
		<stop  offset="1" style="stop-color:#B3B3B3;stop-opacity:0.51"/>
	</linearGradient>
	<path class="st2" d="M607.9,4.6H296.7l121.9,185.2h189.3c12.1,0,21.9-9.8,21.9-21.9V26.5C629.8,14.4,620,4.6,607.9,4.6z"/>
	<g>
		<path class="st0" d="M253.5,150.5H243l-5.8-18.1h-20l-5.5,18.1h-10.2l19.8-61.6h12.3L253.5,150.5L253.5,150.5z M235.5,124.8
			l-5.2-16.1c-0.6-1.6-1.6-5.5-3.1-11.6H227c-0.6,2.6-1.6,6.5-2.9,11.6l-5.1,16.1H235.5z M304.4,127.7c0,7.6-2.1,13.5-6.2,17.9
			c-3.7,3.9-8.2,5.9-13.7,5.9c-5.9,0-10.1-2.1-12.7-6.3v23.3H262v-47.9c0-4.7-0.1-9.6-0.4-14.6h8.7l0.6,7h0.2c3.3-5.3,8.3-8,15-8
			c5.2,0,9.6,2.1,13.1,6.2C302.7,115.5,304.4,120.9,304.4,127.7L304.4,127.7z M294.4,128.1c0-4.3-1-7.9-2.9-10.7
			c-2.1-2.9-5-4.4-8.6-4.4c-2.4,0-4.6,0.8-6.6,2.4s-3.3,3.7-3.9,6.4c-0.3,1-0.4,2-0.5,3v7.4c0,3.2,1,6,3,8.2s4.6,3.3,7.7,3.3
			c3.7,0,6.6-1.4,8.7-4.3C293.3,136.6,294.4,132.8,294.4,128.1z M355.6,127.7c0,7.6-2.1,13.5-6.2,17.9c-3.7,3.9-8.2,5.9-13.7,5.9
			c-5.9,0-10.1-2.1-12.7-6.3v23.3h-9.9v-47.9c0-4.7-0.1-9.6-0.4-14.6h8.7l0.6,7h0.2c3.3-5.3,8.3-8,15-8c5.2,0,9.6,2.1,13.1,6.2
			C353.8,115.5,355.6,120.9,355.6,127.7L355.6,127.7z M345.5,128.1c0-4.3-1-7.9-2.9-10.7c-2.1-2.9-5-4.4-8.6-4.4
			c-2.4,0-4.6,0.8-6.6,2.4s-3.3,3.7-3.9,6.4c-0.3,1.2-0.5,2.2-0.5,3v7.4c0,3.2,1,6,3,8.2s4.6,3.3,7.7,3.3c3.7,0,6.6-1.4,8.7-4.3
			C344.5,136.6,345.5,132.8,345.5,128.1z M412.7,133.2c0,5.2-1.8,9.5-5.5,12.8c-4,3.6-9.6,5.4-16.8,5.4c-6.6,0-11.9-1.3-16-3.8
			l2.3-8.2c4.3,2.6,9.1,3.8,14.3,3.8c3.7,0,6.6-0.8,8.7-2.5s3.1-3.9,3.1-6.7c0-2.5-0.9-4.6-2.6-6.3s-4.5-3.3-8.5-4.8
			c-10.8-4-16.2-9.9-16.2-17.7c0-5.1,1.9-9.2,5.7-12.4c3.8-3.2,8.9-4.8,15.1-4.8c5.6,0,10.3,1,14,2.9l-2.5,8
			c-3.5-1.9-7.4-2.8-11.8-2.8c-3.5,0-6.2,0.9-8.2,2.6c-1.6,1.5-2.5,3.4-2.5,5.6c0,2.4,0.9,4.5,2.8,6c1.6,1.5,4.6,3,9,4.8
			c5.3,2.1,9.2,4.6,11.7,7.5C411.4,125.4,412.7,128.9,412.7,133.2L412.7,133.2z M445.4,113.5h-10.9V135c0,5.5,1.9,8.2,5.8,8.2
			c1.8,0,3.2-0.1,4.4-0.5l0.3,7.5c-1.9,0.7-4.5,1.1-7.7,1.1c-3.9,0-6.9-1.2-9.1-3.6c-2.2-2.4-3.3-6.4-3.3-12v-22.4h-6.5V106h6.5
			v-8.1l9.7-2.9v11h10.9L445.4,113.5L445.4,113.5z M494.4,127.9c0,6.8-2,12.4-5.9,16.8c-4.1,4.5-9.5,6.8-16.3,6.8
			c-6.5,0-11.7-2.2-15.6-6.5s-5.8-9.8-5.8-16.4c0-6.9,2-12.5,6-16.9s9.4-6.6,16.1-6.6c6.5,0,11.8,2.2,15.7,6.5
			C492.5,115.8,494.4,121.2,494.4,127.9L494.4,127.9z M484.2,128.1c0-4.1-0.9-7.6-2.6-10.5c-2.1-3.5-5-5.3-8.9-5.3
			c-4,0-7,1.8-9.1,5.3c-1.8,2.9-2.6,6.5-2.6,10.7c0,4.1,0.9,7.6,2.6,10.5c2.1,3.5,5.1,5.3,9,5.3c3.8,0,6.7-1.8,8.9-5.4
			C483.3,135.7,484.2,132.2,484.2,128.1L484.2,128.1z M526.5,114.7c-1-0.2-2.1-0.3-3.1-0.3c-3.5,0-6.2,1.3-8,3.9
			c-1.6,2.3-2.5,5.2-2.5,8.8v23.3H503V120c0-4.7-0.1-9.3-0.3-14h8.6l0.4,8.5h0.3c1-2.9,2.7-5.3,4.9-7c2.1-1.5,4.6-2.4,7.1-2.4
			c0.9,0,1.7,0.1,2.5,0.2V114.7L526.5,114.7z M570.7,126.2c0,1.5-0.1,3-0.4,4.5h-29.6c0.1,4.4,1.5,7.8,4.3,10.1
			c2.5,2.1,5.7,3.1,9.7,3.1c4.4,0,8.4-0.7,12-2.1l1.5,6.8c-4.2,1.8-9.2,2.7-14.9,2.7c-6.9,0-12.3-2-16.2-6.1s-5.9-9.5-5.9-16.3
			c0-6.7,1.8-12.3,5.5-16.7c3.8-4.8,9-7.1,15.5-7.1c6.4,0,11.3,2.4,14.5,7.1C569.4,115.9,570.7,120.6,570.7,126.2L570.7,126.2z
			 M561.3,123.6c0.1-2.9-0.6-5.5-1.9-7.6c-1.7-2.8-4.3-4.1-7.9-4.1c-3.2,0-5.9,1.3-7.9,4c-1.6,2.1-2.6,4.7-2.9,7.7H561.3
			L561.3,123.6z"/>
	</g>
	<g>
		<path class="st0" d="M214.4,67.1c-2.7,0-5.1-0.1-7.1-0.4V36.9c2.8-0.4,5.6-0.6,8.4-0.6c11.3,0,16.5,5.6,16.5,14.7
			C232.2,61.4,226,67.1,214.4,67.1z M216,40.1c-1.5,0-2.8,0.1-3.9,0.3V63c0.6,0.1,1.7,0.1,3.3,0.1c7.4,0,11.6-4.2,11.6-12.1
			C227,44,223.2,40.1,216,40.1z M248.4,67.3c-6.4,0-10.5-4.8-10.5-11.2c0-6.7,4.2-11.5,10.9-11.5c6.3,0,10.5,4.5,10.5,11.2
			S254.9,67.3,248.4,67.3L248.4,67.3z M248.6,48.1c-3.5,0-5.8,3.3-5.8,7.9c0,4.5,2.3,7.8,5.7,7.8s5.7-3.5,5.7-7.9
			C254.3,51.4,252,48.1,248.6,48.1L248.6,48.1z M295.7,45l-6.8,21.8h-4.5l-2.8-9.5c-0.7-2.3-1.3-4.7-1.8-7.1h-0.1
			c-0.4,2.4-1,4.8-1.8,7.1l-3,9.5h-4.5L264,45h5l2.5,10.4c0.6,2.5,1.1,4.8,1.5,7h0.1c0.4-1.8,0.9-4.1,1.8-7L278,45h4l3,10.2
			c0.7,2.5,1.3,4.9,1.8,7.2h0.1c0.3-2.2,0.8-4.6,1.5-7.2l2.7-10.2H295.7L295.7,45z M320.8,66.8H316V54.3c0-3.9-1.5-5.8-4.4-5.8
			s-4.9,2.5-4.9,5.3v13h-4.9V51.2c0-1.9,0-4-0.2-6.2h4.3l0.2,3.4h0.1c1.3-2.3,4-3.8,6.9-3.8c4.6,0,7.6,3.5,7.6,9.2L320.8,66.8
			L320.8,66.8z M334.2,66.8h-4.9V34.9h4.9V66.8z M351.9,67.3c-6.4,0-10.5-4.8-10.5-11.2c0-6.7,4.2-11.5,10.9-11.5
			c6.3,0,10.5,4.5,10.5,11.2S358.4,67.3,351.9,67.3L351.9,67.3z M352.1,48.1c-3.5,0-5.8,3.3-5.8,7.9c0,4.5,2.3,7.8,5.7,7.8
			c3.4,0,5.7-3.5,5.7-7.9C357.7,51.4,355.5,48.1,352.1,48.1L352.1,48.1z M381.9,66.8l-0.4-2.5h-0.1c-1.5,2-3.6,3-6.4,3
			c-3.9,0-6.7-2.7-6.7-6.4c0-5.4,4.7-8.2,12.8-8.2v-0.4c0-2.9-1.5-4.3-4.5-4.3c-2.2,0-4,0.5-5.7,1.6l-1-3.2c2-1.3,4.5-1.9,7.5-1.9
			c5.7,0,8.6,3,8.6,9v8c0,2.2,0.1,3.9,0.3,5.2L381.9,66.8L381.9,66.8z M381.2,55.9c-5.4,0-8.1,1.3-8.1,4.4c0,2.3,1.4,3.4,3.3,3.4
			c2.5,0,4.8-1.9,4.8-4.4L381.2,55.9L381.2,55.9z M409.5,66.8l-0.2-3.5h-0.1c-1.4,2.6-3.7,4-7,4c-5.3,0-9.2-4.6-9.2-11.1
			c0-6.8,4-11.6,9.6-11.6c2.9,0,5,1,6.2,3h0.1V34.9h4.9v26c0,2.1,0.1,4.1,0.2,5.9H409.5L409.5,66.8z M408.8,53.9
			c0-3.1-2-5.7-5.1-5.7c-3.6,0-5.8,3.2-5.8,7.7c0,4.4,2.3,7.4,5.7,7.4c3.1,0,5.2-2.7,5.2-5.8L408.8,53.9L408.8,53.9z M444.5,67.3
			c-6.4,0-10.5-4.8-10.5-11.2c0-6.7,4.2-11.5,10.9-11.5c6.3,0,10.5,4.5,10.5,11.2S451,67.3,444.5,67.3L444.5,67.3z M444.7,48.1
			c-3.5,0-5.7,3.3-5.7,7.9c0,4.5,2.3,7.8,5.7,7.8c3.4,0,5.7-3.5,5.7-7.9C450.3,51.4,448.1,48.1,444.7,48.1L444.7,48.1z M481.5,66.8
			h-4.9V54.3c0-3.9-1.5-5.8-4.4-5.8s-4.8,2.5-4.8,5.3v13h-4.9V51.2c0-1.9,0-4-0.2-6.2h4.3l0.2,3.4h0.1c1.3-2.3,4-3.8,6.9-3.8
			c4.6,0,7.6,3.5,7.6,9.2L481.5,66.8L481.5,66.8z M514.1,48.6h-5.3v10.6c0,2.7,0.9,4,2.8,4c0.9,0,1.6-0.1,2.2-0.2l0.1,3.7
			c-0.9,0.4-2.2,0.5-3.8,0.5c-3.8,0-6.1-2.1-6.1-7.6v-11h-3.2V45h3.2v-4l4.8-1.4V45h5.3V48.6L514.1,48.6z M539.8,66.8H535V54.3
			c0-3.9-1.5-5.9-4.4-5.9c-2.5,0-4.9,1.7-4.9,5.2v13.2h-4.8V34.9h4.8V48h0.1c1.5-2.4,3.7-3.6,6.6-3.6c4.6,0,7.4,3.6,7.4,9.3
			L539.8,66.8L539.8,66.8z M566.1,57h-14.6c0.1,4.1,2.8,6.5,6.9,6.5c2.2,0,4.1-0.4,5.9-1l0.8,3.4c-2.1,0.9-4.5,1.3-7.3,1.3
			c-6.8,0-10.9-4.3-10.9-11s4.1-11.7,10.3-11.7c5.6,0,9.1,4.1,9.1,10.4C566.3,55.6,566.3,56.3,566.1,57L566.1,57z M561.7,53.6
			c0-3.4-1.7-5.8-4.8-5.8c-2.8,0-5,2.4-5.3,5.8H561.7L561.7,53.6z"/>
	</g>
</g>
</svg>
