<?xml version="1.0" encoding="utf-8"?>
<!-- Generator: Adobe Illustrator 25.0.0, SVG Export Plug-In . SVG Version: 6.00 Build 0)  -->
<!DOCTYPE svg PUBLIC "-//W3C//DTD SVG 1.1//EN" "http://www.w3.org/Graphics/SVG/1.1/DTD/svg11.dtd" [
	<!ENTITY ns_extend "http://ns.adobe.com/Extensibility/1.0/">
	<!ENTITY ns_ai "http://ns.adobe.com/AdobeIllustrator/10.0/">
	<!ENTITY ns_graphs "http://ns.adobe.com/Graphs/1.0/">
	<!ENTITY ns_vars "http://ns.adobe.com/Variables/1.0/">
	<!ENTITY ns_imrep "http://ns.adobe.com/ImageReplacement/1.0/">
	<!ENTITY ns_sfw "http://ns.adobe.com/SaveForWeb/1.0/">
	<!ENTITY ns_custom "http://ns.adobe.com/GenericCustomNamespace/1.0/">
	<!ENTITY ns_adobe_xpath "http://ns.adobe.com/XPath/1.0/">
]>
<svg version="1.1" id="Layer_1" xmlns:x="&ns_extend;" xmlns:i="&ns_ai;" xmlns:graph="&ns_graphs;"
	 xmlns="http://www.w3.org/2000/svg" xmlns:xlink="http://www.w3.org/1999/xlink" x="0px" y="0px" viewBox="0 0 90 80.3"
	 style="enable-background:new 0 0 90 80.3;" xml:space="preserve">
<style type="text/css">
	.st0{fill:black;}
</style>
<metadata>
	<sfw  xmlns="&ns_sfw;">
		<slices></slices>
		<sliceSourceBounds  bottomLeftOrigin="true" height="80.3" width="90" x="5" y="34.8"></sliceSourceBounds>
	</sfw>
</metadata>
<g>
	<path class="st0" d="M16.7,49c5.8,0,10.5-4.7,10.5-10.5s-4.7-10.5-10.5-10.5S6.2,32.6,6.2,38.4C6.2,44.2,10.9,49,16.7,49z"/>
	<path class="st0" d="M33.5,80.3V60.9c0-4.8-2.9-8.9-7.1-10.7c-2.6,2.2-6,3.5-9.7,3.5s-7-1.3-9.7-3.5C2.9,51.9,0,56.1,0,60.9v19.5
		h26.4H33.5z"/>
	<path class="st0" d="M62.7,38.4c0,5.8,4.7,10.5,10.5,10.5c5.8,0,10.5-4.7,10.5-10.5s-4.7-10.5-10.5-10.5
		C67.4,27.9,62.7,32.6,62.7,38.4z"/>
	<path class="st0" d="M73.3,53.6c-3.7,0-7-1.3-9.7-3.5c-4.2,1.8-7.1,5.9-7.1,10.7v19.5h7.1H90V60.9c0-4.8-2.9-8.9-7.1-10.7
		C80.3,52.3,76.9,53.6,73.3,53.6z"/>
	<path class="st0" d="M45,43.3c6.5,0,11.8-5.3,11.8-11.8S51.5,19.6,45,19.6s-11.8,5.3-11.8,11.8S38.5,43.3,45,43.3z"/>
	<path class="st0" d="M60.3,46.6c-1.2-1.2-2.7-2.2-4.4-2.8c-2.9,2.6-6.7,4.2-10.9,4.2s-8-1.6-10.9-4.2c-1.7,0.6-3.2,1.6-4.4,2.8
		c5,2.8,8.5,8.1,8.5,14.3v19.5h13.7V60.9C51.9,54.7,55.3,49.3,60.3,46.6z"/>
	<path class="st0" d="M52.8,16.9c4.5,2.4,7.7,6.9,8.5,12.2c2.7-3.4,6.8-5.7,11.5-5.8c0.1-0.7,0.2-1.4,0.2-2.1
		c0-5.8-4.7-10.5-10.5-10.5C58.1,10.6,54.4,13.2,52.8,16.9z"/>
	<path class="st0" d="M28.7,29.1c0.8-5.2,3.9-9.6,8.3-12c-1.7-3.5-5.3-5.9-9.4-5.9c-5.8,0-10.5,4.7-10.5,10.5c0,0.5,0.1,1.1,0.1,1.6
		C21.8,23.4,26,25.6,28.7,29.1z"/>
	<path class="st0" d="M41.4,15.4c1.2-0.3,2.4-0.4,3.6-0.4c1.2,0,2.3,0.1,3.4,0.4c1.3-3.2,3.7-5.8,6.8-7.5C54,3.3,49.9,0,45,0
		c-5,0-9.2,3.5-10.3,8.3C37.6,9.8,40,12.3,41.4,15.4z"/>
</g>
</svg>
