<?xml version="1.0" encoding="utf-8"?>
<!-- Generator: Adobe Illustrator 23.1.0, SVG Export Plug-In . SVG Version: 6.00 Build 0)  -->
<!DOCTYPE svg PUBLIC "-//W3C//DTD SVG 1.1//EN" "http://www.w3.org/Graphics/SVG/1.1/DTD/svg11.dtd" [
	<!ENTITY ns_extend "http://ns.adobe.com/Extensibility/1.0/">
	<!ENTITY ns_ai "http://ns.adobe.com/AdobeIllustrator/10.0/">
	<!ENTITY ns_graphs "http://ns.adobe.com/Graphs/1.0/">
	<!ENTITY ns_vars "http://ns.adobe.com/Variables/1.0/">
	<!ENTITY ns_imrep "http://ns.adobe.com/ImageReplacement/1.0/">
	<!ENTITY ns_sfw "http://ns.adobe.com/SaveForWeb/1.0/">
	<!ENTITY ns_custom "http://ns.adobe.com/GenericCustomNamespace/1.0/">
	<!ENTITY ns_adobe_xpath "http://ns.adobe.com/XPath/1.0/">
]>
<svg version="1.1" id="Layer_9" xmlns:x="&ns_extend;" xmlns:i="&ns_ai;" xmlns:graph="&ns_graphs;"
	 xmlns="http://www.w3.org/2000/svg" xmlns:xlink="http://www.w3.org/1999/xlink" x="0px" y="0px" viewBox="0 0 236.4 236.4"
	 style="enable-background:new 0 0 236.4 236.4;" xml:space="preserve">
<style type="text/css">
	.st0{fill:#FFFFFF;}
	.st1{fill:url(#SVGID_1_);}
	.st2{fill:url(#SVGID_2_);}
	.st3{fill:url(#SVGID_3_);}
</style>
<metadata>
	<sfw  xmlns="&ns_sfw;">
		<slices></slices>
		<sliceSourceBounds  bottomLeftOrigin="true" height="236.4" width="236.4" x="-1701.8" y="-579.6"></sliceSourceBounds>
	</sfw>
</metadata>
<path class="st0" d="M196.4,236.4H40c-22,0-40-18-40-40V40C0,18,18,0,40,0h156.4c22,0,40,18,40,40v156.4
	C236.4,218.4,218.4,236.4,196.4,236.4z"/>
<g>
	<linearGradient id="SVGID_1_" gradientUnits="userSpaceOnUse" x1="56.5783" y1="104.6458" x2="206.7903" y2="104.6458">
		<stop  offset="0" style="stop-color:#FF4F68"/>
		<stop  offset="0.4309" style="stop-color:#D33D4E"/>
		<stop  offset="1" style="stop-color:#9C272D"/>
	</linearGradient>
	<path class="st1" d="M126.3,29.4c-29.9,0-55.9,16.3-69.7,40.2c6.2,0.2,12,2.8,16.1,7.1c11.2-17.9,31-29.7,53.4-29.7
		c34.9,0,63.1,28.4,63.1,63.1c0,22.6-12,42.6-29.9,53.6c3.2,3,5.4,6.7,6.5,10.8c0.4,1.7,0.6,3.5,0.7,5.2c24.1-14,40.2-40,40.2-69.7
		C207.2,65.7,170.9,29.4,126.3,29.4z"/>
	<linearGradient id="SVGID_2_" gradientUnits="userSpaceOnUse" x1="94.4108" y1="108.6159" x2="161.6686" y2="108.6159">
		<stop  offset="0" style="stop-color:#FF4F68"/>
		<stop  offset="0.4309" style="stop-color:#D33D4E"/>
		<stop  offset="1" style="stop-color:#9C272D"/>
	</linearGradient>
	<path class="st2" d="M159.1,86.4c-3.4-3.4-9-3.4-12.5,0l-25.4,25.4l-11.8-11.8c-3.4-3.4-9-3.4-12.5,0c-3.4,3.4-3.4,9,0,12.5
		l18.1,18.1c1.7,1.7,3.9,2.6,6.2,2.6s4.5-0.9,6.2-2.6l31.8-31.8C162.5,95.4,162.5,90,159.1,86.4z"/>
	<linearGradient id="SVGID_3_" gradientUnits="userSpaceOnUse" x1="29.6317" y1="145.8015" x2="151.7931" y2="145.8015">
		<stop  offset="0" style="stop-color:#FF4F68"/>
		<stop  offset="0.4309" style="stop-color:#D33D4E"/>
		<stop  offset="1" style="stop-color:#9C272D"/>
	</linearGradient>
	<path class="st3" d="M147.4,173.3l-25-12.9c-3.5-1.9-7.8-0.9-10.3,2.2l-9.2,11.8c-9-4.9-15.7-9.3-23.5-17.2
		c-8.4-8.4-12.9-15.3-17.4-23.9l11.6-9.2c3.2-2.4,4.1-6.7,2.2-10.3L62.9,89c-2.2-4.3-7.8-5.8-12-3L35.1,96.7
		c-3.7,2.4-5.8,6.7-5.4,11.2c0.4,4.5,0.9,10.3,1.9,14.2c4.7,17.6,15.9,36.1,31.4,51.6c15.7,15.5,34,26.7,51.8,31.4
		c3.9,1.1,9.7,1.7,14.2,1.9c4.5,0.4,8.8-1.9,11.2-5.6l10.3-16.1C153.2,181.2,151.7,175.5,147.4,173.3z"/>
</g>
</svg>
