<?xml version="1.0" encoding="utf-8"?>
<!-- Generator: Adobe Illustrator 25.0.0, SVG Export Plug-In . SVG Version: 6.00 Build 0)  -->
<!DOCTYPE svg PUBLIC "-//W3C//DTD SVG 1.1//EN" "http://www.w3.org/Graphics/SVG/1.1/DTD/svg11.dtd" [
	<!ENTITY ns_extend "http://ns.adobe.com/Extensibility/1.0/">
	<!ENTITY ns_ai "http://ns.adobe.com/AdobeIllustrator/10.0/">
	<!ENTITY ns_graphs "http://ns.adobe.com/Graphs/1.0/">
	<!ENTITY ns_vars "http://ns.adobe.com/Variables/1.0/">
	<!ENTITY ns_imrep "http://ns.adobe.com/ImageReplacement/1.0/">
	<!ENTITY ns_sfw "http://ns.adobe.com/SaveForWeb/1.0/">
	<!ENTITY ns_custom "http://ns.adobe.com/GenericCustomNamespace/1.0/">
	<!ENTITY ns_adobe_xpath "http://ns.adobe.com/XPath/1.0/">
]>
<svg version="1.1" id="Layer_1" xmlns:x="&ns_extend;" xmlns:i="&ns_ai;" xmlns:graph="&ns_graphs;"
	 xmlns="http://www.w3.org/2000/svg" xmlns:xlink="http://www.w3.org/1999/xlink" x="0px" y="0px" viewBox="0 0 100 100"
	 style="enable-background:new 0 0 100 100;" xml:space="preserve">
<style type="text/css">
	.st0{fill:#00b7e2;}
</style>
<metadata>
	<sfw  xmlns="&ns_sfw;">
		<slices></slices>
		<sliceSourceBounds  bottomLeftOrigin="true" height="100" width="100" x="5" y="32.5"></sliceSourceBounds>
	</sfw>
</metadata>
<path class="st0" d="M50,0C22.4,0,0,22.4,0,50s22.4,50,50,50s50-22.4,50-50S77.6,0,50,0z M50,81c-3.6,0-6.7-2.6-7.3-6
	c2.5,0.2,5,0.2,7.3,0.2s4.8-0.1,7.3-0.2C56.7,78.4,53.6,81,50,81z M57.5,73c-2.6,0.2-5.2,0.3-7.5,0.3s-4.9-0.1-7.5-0.3
	c-10.1-0.7-20.7-2.5-18.1-5.1c3.2-3.2,7.1-7.8,7.1-23.3c0-11.3,6.7-16.4,12.6-18.3c-0.1-0.3-0.1-0.7-0.1-1c0-0.1,0-0.1,0-0.2
	c0-0.3,0-0.6,0.1-0.9C44.5,21.2,47,19,50,19s5.5,2.2,5.9,5.1c0,0.3,0.1,0.6,0.1,0.9c0,0.1,0,0.1,0,0.2c0,0.4,0,0.7-0.1,1
	c5.9,1.9,12.6,7,12.6,18.3c0,15.5,3.9,20.1,7.1,23.3C78.2,70.5,67.6,72.3,57.5,73z"/>
</svg>
