<?xml version="1.0" encoding="utf-8"?>
<!-- Generator: Adobe Illustrator 23.1.0, SVG Export Plug-In . SVG Version: 6.00 Build 0)  -->
<!DOCTYPE svg PUBLIC "-//W3C//DTD SVG 1.1//EN" "http://www.w3.org/Graphics/SVG/1.1/DTD/svg11.dtd" [
	<!ENTITY ns_extend "http://ns.adobe.com/Extensibility/1.0/">
	<!ENTITY ns_ai "http://ns.adobe.com/AdobeIllustrator/10.0/">
	<!ENTITY ns_graphs "http://ns.adobe.com/Graphs/1.0/">
	<!ENTITY ns_vars "http://ns.adobe.com/Variables/1.0/">
	<!ENTITY ns_imrep "http://ns.adobe.com/ImageReplacement/1.0/">
	<!ENTITY ns_sfw "http://ns.adobe.com/SaveForWeb/1.0/">
	<!ENTITY ns_custom "http://ns.adobe.com/GenericCustomNamespace/1.0/">
	<!ENTITY ns_adobe_xpath "http://ns.adobe.com/XPath/1.0/">
]>
<svg version="1.1" id="Layer_9" xmlns:x="&ns_extend;" xmlns:i="&ns_ai;" xmlns:graph="&ns_graphs;"
	 xmlns="http://www.w3.org/2000/svg" xmlns:xlink="http://www.w3.org/1999/xlink" x="0px" y="0px" viewBox="0 0 236.4 236.4"
	 style="enable-background:new 0 0 236.4 236.4;" xml:space="preserve">
<style type="text/css">
	.st0{fill:#DEDEDE;}
	.st1{fill:#8E3146;}
</style>
<metadata>
	<sfw  xmlns="&ns_sfw;">
		<slices></slices>
		<sliceSourceBounds  bottomLeftOrigin="true" height="236.4" width="236.4" x="-2019.7" y="-579.8"></sliceSourceBounds>
	</sfw>
</metadata>
<path class="st0" d="M196.5,236.4H40.1c-22,0-40-18-40-40V40c0-22,18-40,40-40h156.4c22,0,40,18,40,40v156.4
	C236.5,218.4,218.5,236.4,196.5,236.4z"/>
<path class="st1" d="M71,161.9h94.6c5.3,0,9.5-4.3,9.5-9.5V98.2c0-5.3-4.3-9.5-9.5-9.5h-14c-4.9,0-9.2-3.4-10.2-8.3
	c-0.8-3.5-3.8-5.9-7.3-5.9h-31.4c-3.5,0-6.6,2.5-7.3,5.9c-1,4.8-5.3,8.3-10.2,8.3H71c-5.3,0-9.5,4.3-9.5,9.5c0,0,0,0,0,0v54.2
	C61.5,157.7,65.8,161.9,71,161.9C71,161.9,71,161.9,71,161.9z M160.5,95.9c3.3,0,6,2.7,6,6c0,3.3-2.7,6-6,6c-3.3,0-6-2.7-6-6
	c0,0,0,0,0,0C154.4,98.6,157.1,95.9,160.5,95.9C160.5,95.9,160.5,95.9,160.5,95.9z M118.3,94.1c15.8,0,28.7,12.8,28.7,28.7
	s-12.8,28.7-28.7,28.7s-28.7-12.8-28.7-28.7c0,0,0,0,0,0C89.7,106.9,102.5,94.1,118.3,94.1L118.3,94.1z M96,122.8
	c0-12.4,10-22.4,22.4-22.4c12.4,0,22.4,10,22.4,22.4s-10,22.4-22.4,22.4l0,0C106,145.1,96,135.1,96,122.8z"/>
</svg>
