<?xml version="1.0" encoding="utf-8"?>
<!-- Generator: Adobe Illustrator 22.1.0, SVG Export Plug-In . SVG Version: 6.00 Build 0)  -->
<svg version="1.1" id="Layer_1" xmlns="http://www.w3.org/2000/svg" xmlns:xlink="http://www.w3.org/1999/xlink" x="0px" y="0px"
	 viewBox="0 0 60.4 59.4" style="enable-background:new 0 0 60.4 59.4;" xml:space="preserve">
<style type="text/css">
	.st0{fill:#606060;}
</style>
<g>
	<path class="st0" d="M11.1,51.5c5,5.1,11.8,7.9,19,7.9c0,0,0,0,0,0c7.2,0,14-2.8,19.1-7.9c5.1-5.1,7.9-11.8,7.9-19
		c0-7.2-2.8-14-7.9-19.1c-1-1-2.6-1-3.6,0c-1,1-1,2.6,0,3.6c4.1,4.1,6.4,9.6,6.4,15.5c0,5.8-2.3,11.3-6.4,15.4
		c-4.1,4.1-9.6,6.4-15.5,6.4c0,0,0,0,0,0c-5.8,0-11.3-2.3-15.4-6.4c-4.1-4.1-6.4-9.6-6.4-15.4c0-5.8,2.3-11.3,6.4-15.4
		c1-1,1-2.6,0-3.6c-1-1-2.6-1-3.6,0C6,18.5,3.2,25.3,3.2,32.5C3.2,39.7,6,46.4,11.1,51.5z"/>
	<path class="st0" d="M29.9,0c-1.4,0-2.6,1.2-2.6,2.6l0,26.1c0,1.4,1.2,2.6,2.6,2.6c1.4,0,2.6-1.2,2.6-2.6l0-26.1
		C32.5,1.1,31.4,0,29.9,0z"/>
</g>
</svg>
