<?xml version="1.0" encoding="utf-8"?>
<!-- Generator: Adobe Illustrator 25.0.0, SVG Export Plug-In . SVG Version: 6.00 Build 0)  -->
<!DOCTYPE svg PUBLIC "-//W3C//DTD SVG 1.1//EN" "http://www.w3.org/Graphics/SVG/1.1/DTD/svg11.dtd" [
	<!ENTITY ns_extend "http://ns.adobe.com/Extensibility/1.0/">
	<!ENTITY ns_ai "http://ns.adobe.com/AdobeIllustrator/10.0/">
	<!ENTITY ns_graphs "http://ns.adobe.com/Graphs/1.0/">
	<!ENTITY ns_vars "http://ns.adobe.com/Variables/1.0/">
	<!ENTITY ns_imrep "http://ns.adobe.com/ImageReplacement/1.0/">
	<!ENTITY ns_sfw "http://ns.adobe.com/SaveForWeb/1.0/">
	<!ENTITY ns_custom "http://ns.adobe.com/GenericCustomNamespace/1.0/">
	<!ENTITY ns_adobe_xpath "http://ns.adobe.com/XPath/1.0/">
]>
<svg version="1.1" id="Layer_1" xmlns:x="&ns_extend;" xmlns:i="&ns_ai;" xmlns:graph="&ns_graphs;"
	 xmlns="http://www.w3.org/2000/svg" xmlns:xlink="http://www.w3.org/1999/xlink" x="0px" y="0px" viewBox="0 0 2268.1 408.9"
	 style="enable-background:new 0 0 2268.1 408.9;" xml:space="preserve">
<style type="text/css">
	.st0{fill:#010101;}
	.st1{fill:#FFFFFF;}
</style>
<metadata>
	<sfw  xmlns="&ns_sfw;">
		<slices></slices>
		<sliceSourceBounds  bottomLeftOrigin="true" height="408.9" width="2268.1" x="226.6" y="40.9"></sliceSourceBounds>
	</sfw>
</metadata>
<g>
	<g>
		<path id="XMLID_1_" class="st0" d="M407.3,205.6c-0.8,112.6-92.3,204.1-204.8,203.3c-55.5,0-105.6-22.7-142.3-59.4
			C22.7,312,0,260.4,0,203.3C0.8,89.9,92.3-0.8,204.8,0S407.3,93,407.3,205.6z"/>
		<path class="st1" d="M106.3,273.6L61,350.2c0,0,18,25,70.4,45.3l25.8-70.4l17.2-46.9l18-52.4l6.3-17.2l0.8-1.6c0,0,0-0.8,0.8-0.8
			l0.8-0.8l0,0c0,0,0,0,0.8,0h0.8h0.8l0.8,1.6l1.6,4.7l3.1,10.2l12.5,37.5l10.9,32.8l16.4,50.8l12.5,36l7,19.5
			c0,0,41.4-11.7,75.8-46.1l-25-37.5l-16.4-28.1L286.1,254L272,225.1l-10.9-25.8l-9.4-25.8l-8.6-25l-8.6-29.7l-8.6-30.5l-7.8-29.7
			l-8.6-32.8l-6.3-16.4l-9.4,31.3l-13.3,43.8L169.7,118l-12.5,37.5l-11,30.5l-12.5,29.7l-13.3,28.2L106.3,273.6z"/>
	</g>
	<g>
		<path class="st0" d="M695.8,159.4c-5.5-14.1-13.3-25.8-23.5-35.2c-10.2-10.2-21.9-18-36-23.5s-29.7-8.6-46.9-8.6h-82.9
			c-2.3,0-3.9,1.6-3.9,3.9v79.7c0,2.3,1.6,3.9,3.9,3.9h39.9c2.3,0,3.9-1.6,3.9-3.9v-43c0-2.3,1.6-3.9,3.9-3.9h36
			c10.2,0,20.3,1.6,28.1,5.5c8.6,3.1,15.6,8.6,21.1,14.9c5.5,6.3,10.2,14.1,13.3,24.2c3.1,9.4,4.7,20.3,4.7,32.1s-1.6,22.7-4.7,32.1
			s-7.8,17.2-13.3,24.2c-5.5,6.3-12.5,11.7-21.1,14.9c-8.6,3.1-18,5.5-28.1,5.5h-36c-2.3,0-3.9-1.6-3.9-3.9v-43
			c0-2.3-1.6-3.9-3.9-3.9h-39.9c-2.3,0-3.9,1.6-3.9,3.9v77.4c0,2.3,1.6,3.9,3.9,3.9h82.9c17.2,0,32.8-3.1,46.9-8.6
			c14.1-5.5,26.6-13.3,36-23.5c10.2-10.2,18-21.9,23.5-35.2c5.5-14.1,8.6-28.9,8.6-45.3C704.4,187.6,701.3,172.7,695.8,159.4z"/>
		<path class="st0" d="M788.9,128.2H878c2.3,0,3.9-1.6,3.9-3.9V95.4c0-2.3-1.6-3.9-3.9-3.9H742c-2.3,0-3.9,1.6-3.9,3.9v217.4
			c0,2.3,1.6,3.9,3.9,3.9h136c2.3,0,3.9-1.6,3.9-3.9v-28.9c0-2.3-1.6-3.9-3.9-3.9h-89.1c-2.3,0-3.9-1.6-3.9-3.9v-51.6
			c0-2.3,1.6-3.9,3.9-3.9h68c2.3,0,3.9-1.6,3.9-3.9v-28.1c0-2.3-1.6-3.9-3.9-3.9h-68c-2.3,0-3.9-1.6-3.9-3.9V130
			C785.8,129.7,787.3,128.2,788.9,128.2z"/>
		<path class="st0" d="M1104.8,92.2h-33.6c-2.3,0-3.9,1.6-3.9,3.9v125.1c0,3.1,0,7,0,10.2c0,3.9,0.8,7.8,0.8,11.7L955.4,100
			c-1.6-1.6-2.3-3.1-3.1-3.9s-2.3-1.6-3.1-2.3c-0.8-0.8-2.3-0.8-3.9-0.8s-3.1,0-4.7,0h-21.1c-2.3,0-3.9,1.6-3.9,3.9v215.8
			c0,2.3,1.6,3.9,3.9,3.9h33.6c2.3,0,3.9-1.6,3.9-3.9V186.8c0-3.1,0-6.3,0-9.4c0-3.9,0-7-0.8-10.9L1068,308.8c2.3,3.1,4.7,4.7,7,6.3
			c2.3,1.6,5.5,1.6,9.4,1.6h20.3c2.3,0,3.9-1.6,3.9-3.9V95.3C1108.7,93.7,1107.1,92.2,1104.8,92.2z"/>
		<path class="st0" d="M1311.2,92.2h-170.4c-2.3,0-3.9,1.6-3.9,3.9v30.5c0,2.3,1.6,3.9,3.9,3.9h58.6c2.3,0,3.9,1.6,3.9,3.9v179.8
			c0,2.3,1.6,3.9,3.9,3.9h39.1c2.3,0,3.9-1.6,3.9-3.9V132.8c0-2.3,1.6-3.9,3.9-3.9h58.6c2.3,0,3.9-1.6,3.9-3.9V94.5
			C1315.1,93.7,1313.5,92.2,1311.2,92.2z"/>
		<path class="st0" d="M1515.2,311.9l-84.4-217.4c-0.8-1.6-1.6-2.3-3.1-2.3h-42.3c-1.6,0-3.1,0.8-3.1,2.3l-85.2,217.4
			c-0.8,2.3,0.8,4.7,3.1,4.7h31.3c3.9,0,7-0.8,9.4-3.1s4.7-4.7,5.5-7l14.1-40.7c0.8-1.6,1.6-2.3,3.1-2.3h84.4c1.6,0,3.1,0.8,3.1,2.3
			l14.1,40.7c1.6,3.1,3.1,5.5,5.5,7s5.5,3.1,10.2,3.1h30.5C1514.4,316.6,1516.8,314.2,1515.2,311.9z M1433.9,231.4h-56.3
			c-2.3,0-3.9-2.3-3.1-4.7l22.7-63.3c1.6-3.9,3.1-7.8,4.7-12.5c0-1.6,0.8-2.3,0.8-3.9c0.8-3.1,5.5-3.1,7,0c0,0.8,0.8,2.3,0.8,3.1
			c1.6,4.7,3.1,9.4,4.7,12.5l22.7,64.1C1438.6,229,1437,231.4,1433.9,231.4z"/>
		<path class="st0" d="M1706.8,281.4l-16.4-17.2c-1.6-1.6-3.9-3.1-6.3-3.1c-1.6,0-3.1,0-3.9,0.8c-1.6,0.8-2.3,1.6-3.9,2.3
			c-3.1,3.1-6.3,5.5-10.2,7c-3.1,2.3-7,3.9-10.2,4.7c-3.9,1.6-7.8,2.3-11.7,2.3c-4.7,0.8-9.4,0.8-14.1,0.8c-8.6,0-17.2-1.6-25-4.7
			s-14.9-8.6-20.3-14.9c-5.5-6.3-10.2-14.9-14.1-24.2c-3.1-9.4-4.7-20.3-4.7-32.1s1.6-22.7,4.7-32.1c3.1-9.4,7.8-17.2,13.3-23.5
			s12.5-11.7,20.3-14.9c7.8-3.1,16.4-5.5,25.8-5.5c8.6,0,15.6,0.8,21.1,2.3c5.5,1.6,10.2,3.9,14.1,6.3c3.9,2.3,7,3.9,9.4,5.5
			s4.7,2.3,7.8,2.3c2.3,0,4.7-0.8,5.5-1.6c1.6-0.8,2.3-2.3,3.9-3.9l14.1-18.8c0.8-1.6,0.8-3.9-0.8-4.7c-3.9-3.9-7.8-7-12.5-10.2
			c-5.5-3.9-10.9-7-18-9.4c-6.3-2.3-13.3-4.7-20.3-6.3s-14.9-2.3-23.5-2.3c-10.9,0-21.1,1.6-31.3,3.9c-9.4,2.3-18.8,6.3-27.4,10.9
			c-8.6,4.7-15.6,10.9-21.9,17.2c-6.3,7-12.5,14.1-16.4,22.7c-4.7,8.6-7.8,18-10.9,28.1c-2.3,10.2-3.9,20.3-3.9,32.1
			c0,16.4,2.3,32.1,7.8,46.1c5.5,14.1,12.5,25.8,21.9,36s21.1,18,34.4,24.2c13.3,5.5,28.1,8.6,45.3,8.6c18.8,0,34.4-3.1,47.7-8.6
			c12.5-5.5,23.5-13.3,32.1-23.5C1708.4,284.5,1708.4,283,1706.8,281.4z"/>
		<path class="st0" d="M1939,158.6c-5.5-14.1-13.3-25.8-23.5-36s-21.9-18-36-24.2c-14.1-5.5-29.7-8.6-46.9-8.6s-32.8,3.1-46.9,8.6
			s-26.6,14.1-36.7,24.2c-10.2,10.2-18,22.7-23.5,36c-5.5,14.1-8.6,28.9-8.6,45.3s3.1,31.3,8.6,45.3c5.5,14.1,13.3,25.8,23.5,36.7
			c10.2,10.2,21.9,18,36.7,24.2c14.1,5.5,29.7,8.6,46.9,8.6c17.2,0,32.8-3.1,46.9-8.6c14.1-5.5,26.6-14.1,36-24.2
			c10.2-10.2,18-22.7,23.5-36.7c5.5-14.1,8.6-28.9,8.6-45.3S1944.5,172.7,1939,158.6z M1895.2,236c-3.1,9.4-7.8,17.2-13.3,23.5
			s-13.3,11.7-21.1,14.9c-8.6,3.1-18,5.5-28.1,5.5c-10.2,0-20.3-1.6-28.1-5.5c-8.6-3.1-15.6-8.6-21.1-14.9s-10.2-14.1-13.3-23.5
			c-3.1-9.4-4.7-20.3-4.7-32.1s1.6-22.7,4.7-32.1c3.1-9.4,7.8-17.2,13.3-23.5s13.3-11.7,21.1-14.9c8.6-3.1,18-5.5,28.1-5.5
			c10.2,0,19.5,1.6,28.1,5.5c8.6,3.1,15.6,8.6,21.1,14.9c5.5,6.3,10.2,14.9,13.3,23.5c3.1,9.4,4.7,19.5,4.7,32.1
			C1899.9,215.7,1898.3,226.7,1895.2,236z"/>
		<path class="st0" d="M2024.2,92.2h-39.9c-2.3,0-3.9,1.6-3.9,3.9v216.6c0,2.3,1.6,3.9,3.9,3.9h39.9c2.3,0,3.9-1.6,3.9-3.9V95.3
			C2028.1,93.7,2026.6,92.2,2024.2,92.2z"/>
		<path class="st0" d="M2264.3,92.2h-33.6c-2.3,0-3.9,1.6-3.9,3.9v125.1c0,3.1,0,7,0,10.2c0,3.9,0.8,7.8,0.8,11.7L2114.9,100
			c-1.6-1.6-2.3-3.1-3.1-3.9s-2.3-1.6-3.1-2.3c-0.8-0.8-2.3-0.8-3.9-0.8s-3.1,0-4.7,0H2079c-2.3,0-3.9,1.6-3.9,3.9v215.8
			c0,2.3,1.6,3.9,3.9,3.9h33.6c2.3,0,3.9-1.6,3.9-3.9V186.8c0-3.1,0-6.3,0-9.4c0-3.9,0-7-0.8-10.9l111.8,142.3
			c2.3,3.1,4.7,4.7,7,6.3s5.5,1.6,9.4,1.6h20.3c2.3,0,3.9-1.6,3.9-3.9V95.3C2267.4,93.7,2265.8,92.2,2264.3,92.2z"/>
	</g>
</g>
</svg>
