<?xml version="1.0" encoding="utf-8"?>
<!-- Generator: Adobe Illustrator 23.0.1, SVG Export Plug-In . SVG Version: 6.00 Build 0)  -->
<svg version="1.1" id="Layer_1" xmlns="http://www.w3.org/2000/svg" xmlns:xlink="http://www.w3.org/1999/xlink" x="0px" y="0px"
	 viewBox="0 0 290 52.3" style="enable-background:new 0 0 290 52.3;" xml:space="preserve">
<style type="text/css">
	.st0{fill:#FFFFFF;}
</style>
<g>
	<path class="st0" d="M26.2,0C11.8-0.1,0.1,11.5,0,26c0,7.3,2.9,13.9,7.7,18.7l0.1,0.1l5.8-9.8l1.8-3.8l1.7-3.6l1.6-3.8l1.4-3.9
		l1.6-4.8l1.4-4.3l1.7-5.6l1.2-4l0.8,2.1l1.1,4.2l1,3.8l1.1,3.9l1.1,3.8l1.1,3.2l1.2,3.3l1.4,3.3l1.8,3.7l2.1,4.2l2.1,3.6l3.2,4.8
		c5-4.7,8.1-11.4,8.1-18.8C52.1,11.9,40.6,0.1,26.2,0z"/>
	<path class="st0" d="M86,15.9c-1.3-1.3-2.8-2.3-4.6-3c-1.8-0.7-3.8-1.1-6-1.1H64.8c-0.3,0-0.5,0.2-0.5,0.5v10.2
		c0,0.3,0.2,0.5,0.5,0.5h5.1c0.3,0,0.5-0.2,0.5-0.5V17c0-0.3,0.2-0.5,0.5-0.5h4.6c1.3,0,2.6,0.2,3.6,0.7c1.1,0.4,2,1.1,2.7,1.9
		s1.3,1.8,1.7,3.1c0.4,1.2,0.6,2.6,0.6,4.1s-0.2,2.9-0.6,4.1s-1,2.2-1.7,3.1c-0.7,0.8-1.6,1.5-2.7,1.9s-2.3,0.7-3.6,0.7h-4.6
		c-0.3,0-0.5-0.2-0.5-0.5v-5.5c0-0.3-0.2-0.5-0.5-0.5h-5.1c-0.3,0-0.5,0.2-0.5,0.5V40c0,0.3,0.2,0.5,0.5,0.5h10.6
		c2.2,0,4.2-0.4,6-1.1c1.8-0.7,3.4-1.7,4.6-3c1.3-1.3,2.3-2.8,3-4.5c0.7-1.8,1.1-3.7,1.1-5.8s-0.4-4-1.1-5.7
		C88.3,18.6,87.3,17.1,86,15.9z"/>
	<path class="st0" d="M112.3,11.7H94.9c-0.3,0-0.5,0.2-0.5,0.5V40c0,0.3,0.2,0.5,0.5,0.5h17.4c0.3,0,0.5-0.2,0.5-0.5v-3.7
		c0-0.3-0.2-0.5-0.5-0.5h-11.4c-0.3,0-0.5-0.2-0.5-0.5v-6.6c0-0.3,0.2-0.5,0.5-0.5h8.7c0.3,0,0.5-0.2,0.5-0.5v-3.6
		c0-0.3-0.2-0.5-0.5-0.5h-8.7c-0.3,0-0.5-0.2-0.5-0.5v-6.5c0.1,0,0.3-0.2,0.5-0.2h11.4c0.3,0,0.5-0.2,0.5-0.5v-3.7
		C112.8,11.9,112.6,11.7,112.3,11.7z"/>
	<path class="st0" d="M141.3,11.8H137c-0.3,0-0.5,0.2-0.5,0.5v16c0,0.4,0,0.9,0,1.3c0,0.5,0.1,1,0.1,1.5l-14.4-18.3
		c-0.2-0.2-0.3-0.4-0.4-0.5s-0.3-0.2-0.4-0.3s-0.3-0.1-0.5-0.1s-0.4,0-0.6,0h-2.7c-0.3,0-0.5,0.2-0.5,0.5V40c0,0.3,0.2,0.5,0.5,0.5
		h4.3c0.3,0,0.5-0.2,0.5-0.5V23.9c0-0.4,0-0.8,0-1.2c0-0.5,0-0.9-0.1-1.4l14.3,18.2c0.3,0.4,0.6,0.6,0.9,0.8s0.7,0.2,1.2,0.2h2.6
		c0.3,0,0.5-0.2,0.5-0.5V12.2C141.8,12,141.6,11.8,141.3,11.8z"/>
	<path class="st0" d="M168.4,16v-3.9c-0.2-0.1-0.4-0.3-0.7-0.3h-21.8c-0.3,0-0.5,0.2-0.5,0.5v3.9c0,0.3,0.2,0.5,0.5,0.5h7.5
		c0.3,0,0.5,0.2,0.5,0.5v23c0,0.3,0.2,0.5,0.5,0.5h5c0.3,0,0.5-0.2,0.5-0.5V17c0-0.3,0.2-0.5,0.5-0.5h7.5
		C168.2,16.5,168.4,16.3,168.4,16z"/>
	<path class="st0" d="M183,12.1c-0.1-0.2-0.2-0.3-0.4-0.3h-5.4c-0.2,0-0.4,0.1-0.4,0.3l-10.9,27.8c-0.1,0.3,0.1,0.6,0.4,0.6h4
		c0.5,0,0.9-0.1,1.2-0.4c0.3-0.3,0.6-0.6,0.7-0.9L174,34c0.1-0.2,0.2-0.3,0.4-0.3h10.8c0.2,0,0.4,0.1,0.4,0.3l1.8,5.2
		c0.2,0.4,0.4,0.7,0.7,0.9s0.7,0.4,1.3,0.4h3.9c0.4,0,0.7-0.3,0.5-0.6L183,12.1z M183.4,29.6h-7.2c-0.3,0-0.5-0.3-0.4-0.6l2.9-8.1
		c0.2-0.5,0.4-1,0.6-1.6c0-0.2,0.1-0.3,0.1-0.5c0.1-0.4,0.7-0.4,0.9,0c0,0.1,0.1,0.3,0.1,0.4c0.2,0.6,0.4,1.2,0.6,1.6l2.9,8.2
		C184,29.3,183.8,29.6,183.4,29.6z"/>
	<path class="st0" d="M216.2,33.8c-0.2-0.2-0.5-0.4-0.8-0.4c-0.2,0-0.4,0-0.5,0.1c-0.2,0.1-0.3,0.2-0.5,0.3
		c-0.4,0.4-0.8,0.7-1.3,0.9c-0.4,0.3-0.9,0.5-1.3,0.6c-0.5,0.2-1,0.3-1.5,0.3c-0.6,0.1-1.2,0.1-1.8,0.1c-1.1,0-2.2-0.2-3.2-0.6
		s-1.9-1.1-2.6-1.9c-0.7-0.8-1.3-1.9-1.8-3.1c-0.4-1.2-0.6-2.6-0.6-4.1s0.2-2.9,0.6-4.1c0.4-1.2,1-2.2,1.7-3s1.6-1.5,2.6-1.9
		s2.1-0.7,3.3-0.7c1.1,0,2,0.1,2.7,0.3c0.7,0.2,1.3,0.5,1.8,0.8s0.9,0.5,1.2,0.7s0.6,0.3,1,0.3c0.3,0,0.6-0.1,0.7-0.2
		c0.2-0.1,0.3-0.3,0.5-0.5l1.8-2.4c0.1-0.2,0.1-0.5-0.1-0.6c-0.5-0.5-1-0.9-1.6-1.3c-0.7-0.5-1.4-0.9-2.3-1.2
		c-0.8-0.3-1.7-0.6-2.6-0.8s-1.9-0.3-3-0.3c-1.4,0-2.7,0.2-4,0.5c-1.2,0.3-2.4,0.8-3.5,1.4c-1.1,0.6-2,1.4-2.8,2.2
		c-0.8,0.9-1.6,1.8-2.1,2.9c-0.6,1.1-1,2.3-1.4,3.6c-0.3,1.3-0.5,2.6-0.5,4.1c0,2.1,0.3,4.1,1,5.9c0.7,1.8,1.6,3.3,2.8,4.6
		s2.7,2.3,4.4,3.1c1.7,0.7,3.6,1.1,5.8,1.1c2.4,0,4.4-0.4,6.1-1.1c1.6-0.7,3-1.7,4.1-3c0,0,0-0.2-0.2-0.4L216.2,33.8z"/>
	<path class="st0" d="M245,15.7c-1.3-1.3-2.8-2.3-4.6-3.1c-1.8-0.7-3.8-1.1-6-1.1s-4.2,0.4-6,1.1c-1.8,0.7-3.4,1.8-4.7,3.1
		c-1.3,1.3-2.3,2.9-3,4.6c-0.7,1.8-1.1,3.7-1.1,5.8s0.4,4,1.1,5.8c0.7,1.8,1.7,3.3,3,4.7c1.3,1.3,2.8,2.3,4.7,3.1
		c1.8,0.7,3.8,1.1,6,1.1s4.2-0.4,6-1.1c1.8-0.7,3.4-1.8,4.6-3.1c1.3-1.3,2.3-2.9,3-4.7c0.7-1.8,1.1-3.7,1.1-5.8s-0.4-4-1.1-5.8
		S246.3,17,245,15.7z M242.4,30.2c-0.4,1.2-1,2.2-1.7,3s-1.7,1.5-2.7,1.9c-1.1,0.4-2.3,0.7-3.6,0.7s-2.6-0.2-3.6-0.7
		c-1.1-0.4-2-1.1-2.7-1.9c-0.7-0.8-1.3-1.8-1.7-3s-0.6-2.6-0.6-4.1s0.2-2.9,0.6-4.1c0.4-1.2,1-2.2,1.7-3s1.7-1.5,2.7-1.9
		c1.1-0.4,2.3-0.7,3.6-0.7s2.5,0.2,3.6,0.7c1.1,0.4,2,1.1,2.7,1.9s1.3,1.9,1.7,3c0.4,1.2,0.6,2.5,0.6,4.1
		C243,27.6,242.8,29,242.4,30.2z"/>
	<path class="st0" d="M258.9,11.8h-5.1c-0.3,0-0.5,0.2-0.5,0.5V40c0,0.3,0.2,0.5,0.5,0.5h5.1c0.3,0,0.5-0.2,0.5-0.5V12.2
		C259.4,12,259.2,11.8,258.9,11.8z"/>
	<path class="st0" d="M289.6,11.8h-4.3c-0.3,0-0.5,0.2-0.5,0.5v16c0,0.4,0,0.9,0,1.3c0,0.5,0.1,1,0.1,1.5l-14.4-18.3
		c-0.2-0.2-0.3-0.4-0.4-0.5s-0.3-0.2-0.4-0.3s-0.3-0.1-0.5-0.1s-0.4,0-0.6,0h-2.7c-0.3,0-0.5,0.2-0.5,0.5V40c0,0.3,0.2,0.5,0.5,0.5
		h4.3c0.3,0,0.5-0.2,0.5-0.5V23.9c0-0.4,0-0.8,0-1.2c0-0.5,0-0.9-0.1-1.4l14.3,18.2c0.3,0.4,0.6,0.6,0.9,0.8s0.7,0.2,1.2,0.2h2.6
		c0.3,0,0.5-0.2,0.5-0.5V12.2C290,12,289.8,11.8,289.6,11.8z"/>
	<g>
		<polygon class="st0" points="18.2,46.9 16.8,50.6 16.8,50.6 		"/>
		<path class="st0" d="M34.3,51l-0.9-2.5l-1.6-4.6l-2.1-6.5l-1.4-4.2l-1.6-4.8l-0.4-1.3l-0.2-0.6L26,26.3h-0.1h-0.1
			c-0.1,0-0.1,0-0.1,0l-0.1,0.1c-0.1,0-0.1,0.1-0.1,0.1l-0.1,0.2l-0.8,2.2l-2.3,6.7l-2.2,6l-1.9,5.3l0,0l0,0l-1.4,3.7l0,0l0,0
			c2.8,1.1,5.9,1.7,9.1,1.7C28.8,52.3,31.7,51.8,34.3,51z"/>
	</g>
</g>
</svg>
