<?xml version="1.0" encoding="utf-8"?>
<!-- Generator: Adobe Illustrator 23.1.0, SVG Export Plug-In . SVG Version: 6.00 Build 0)  -->
<!DOCTYPE svg PUBLIC "-//W3C//DTD SVG 1.1//EN" "http://www.w3.org/Graphics/SVG/1.1/DTD/svg11.dtd" [
	<!ENTITY ns_extend "http://ns.adobe.com/Extensibility/1.0/">
	<!ENTITY ns_ai "http://ns.adobe.com/AdobeIllustrator/10.0/">
	<!ENTITY ns_graphs "http://ns.adobe.com/Graphs/1.0/">
	<!ENTITY ns_vars "http://ns.adobe.com/Variables/1.0/">
	<!ENTITY ns_imrep "http://ns.adobe.com/ImageReplacement/1.0/">
	<!ENTITY ns_sfw "http://ns.adobe.com/SaveForWeb/1.0/">
	<!ENTITY ns_custom "http://ns.adobe.com/GenericCustomNamespace/1.0/">
	<!ENTITY ns_adobe_xpath "http://ns.adobe.com/XPath/1.0/">
]>
<svg version="1.1" id="Layer_1" xmlns:x="&ns_extend;" xmlns:i="&ns_ai;" xmlns:graph="&ns_graphs;"
	 xmlns="http://www.w3.org/2000/svg" xmlns:xlink="http://www.w3.org/1999/xlink" x="0px" y="0px" viewBox="0 0 319.1 319.1"
	 style="enable-background:new 0 0 319.1 319.1;" xml:space="preserve">
<style type="text/css">
	.st0{fill:#010101;}
	.st1{fill:#DA1F26;}
	.st2{fill:#FECE1B;}
</style>
<metadata>
	<sfw  xmlns="&ns_sfw;">
		<slices></slices>
		<sliceSourceBounds  bottomLeftOrigin="true" height="319.1" width="319.1" x="0" y="-319.7"></sliceSourceBounds>
	</sfw>
</metadata>
<g id="XMLID_2406_">
	<path id="XMLID_2409_" class="st0" d="M159.6,0C90.2,0,31.1,44.4,9.1,106.4H310C288,44.4,228.9,0,159.6,0z"/>
	<path id="XMLID_2408_" class="st1" d="M319.1,159.6c0-18.7-3.2-36.6-9.1-53.2H9.1C3.2,123,0,140.9,0,159.6
		c0,18.6,3.2,36.5,9.1,53.2H310C315.9,196.1,319.1,178.2,319.1,159.6z"/>
	<path id="XMLID_2407_" class="st2" d="M9.1,212.8c21.9,61.9,81.1,106.4,150.4,106.4c69.3,0,128.5-44.5,150.4-106.4H9.1z"/>
</g>
</svg>
