<?xml version="1.0" encoding="utf-8"?>
<!-- Generator: Adobe Illustrator 25.0.0, SVG Export Plug-In . SVG Version: 6.00 Build 0)  -->
<!DOCTYPE svg PUBLIC "-//W3C//DTD SVG 1.1//EN" "http://www.w3.org/Graphics/SVG/1.1/DTD/svg11.dtd" [
	<!ENTITY ns_extend "http://ns.adobe.com/Extensibility/1.0/">
	<!ENTITY ns_ai "http://ns.adobe.com/AdobeIllustrator/10.0/">
	<!ENTITY ns_graphs "http://ns.adobe.com/Graphs/1.0/">
	<!ENTITY ns_vars "http://ns.adobe.com/Variables/1.0/">
	<!ENTITY ns_imrep "http://ns.adobe.com/ImageReplacement/1.0/">
	<!ENTITY ns_sfw "http://ns.adobe.com/SaveForWeb/1.0/">
	<!ENTITY ns_custom "http://ns.adobe.com/GenericCustomNamespace/1.0/">
	<!ENTITY ns_adobe_xpath "http://ns.adobe.com/XPath/1.0/">
]>
<svg version="1.1" id="Layer_1" xmlns:x="&ns_extend;" xmlns:i="&ns_ai;" xmlns:graph="&ns_graphs;"
	 xmlns="http://www.w3.org/2000/svg" xmlns:xlink="http://www.w3.org/1999/xlink" x="0px" y="0px" viewBox="0 0 85.2 86"
	 style="enable-background:new 0 0 85.2 86;" xml:space="preserve">
<style type="text/css">
	.st0{fill:#00b7e2;}
</style>
<metadata>
	<sfw  xmlns="&ns_sfw;">
		<slices></slices>
		<sliceSourceBounds  bottomLeftOrigin="true" height="86" width="85.2" x="7.4" y="32"></sliceSourceBounds>
	</sfw>
</metadata>
<g>
	<g>
		<g>
			<path class="st0" d="M81.6,11L9,11c-1.4,0-2.5-1.1-2.5-2.5C6.5,7.1,7.6,6,9,6l63.1,0c1.7,0,3-1.3,3-3s-1.3-3-3-3H7
				C3.1,0,0,3.1,0,7v63.1c0,2,1.6,3.6,3.6,3.6h7.7C16,81.1,24.2,86,33.6,86s17.6-4.9,22.3-12.3h25.7c2,0,3.6-1.6,3.6-3.6V14.7
				C85.2,12.7,83.6,11,81.6,11z M33.6,81c-11.8,0-21.4-9.6-21.4-21.4c0-0.9,0.1-1.8,0.2-2.7c1.3-10.7,10.5-18.8,21.2-18.8
				c2.8,0,5.5,0.5,8,1.5C49.8,43,55,50.8,55,59.6C55,71.4,45.4,81,33.6,81z M79.7,35.5H60.1c-3.7,0-6.7-3-6.7-6.7
				c0-3.7,3-6.7,6.7-6.7h19.6V35.5z M57.9,28.8c0,1.6,1.3,2.9,2.9,2.9s2.9-1.3,2.9-2.9c0-1.6-1.3-2.9-2.9-2.9S57.9,27.2,57.9,28.8z"
				/>
		</g>
	</g>
</g>
<g>
	<path class="st0" d="M23.5,66.8l-4.9,8.3c0,0,2,2.7,7.6,4.9l2.8-7.6l1.9-5.1l1.9-5.6l0.7-1.8l0.1-0.2c0,0,0,0,0-0.1l0,0l0,0h0h0
		l0,0l0.1,0.1l0.2,0.5l0.4,1.1l1.3,4l1.2,3.6l1.8,5.5l1.4,3.8l0.7,2.1c0,0,4.5-1.2,8.3-5l-2.8-4.2l-1.8-3.1L43,64.6l-1.5-3.1
		l-1.2-2.8l-1-2.8l-0.9-2.7l-1-3.1l-1-3.3l-0.9-3.2l-1-3.6l-0.5-1.7L33,41.6l-1.5,4.8L30.4,50L29,54l-1.2,3.3l-1.3,3.2l-1.4,3.1
		L23.5,66.8z"/>
</g>
</svg>
