<?xml version="1.0" encoding="utf-8"?>
<!-- Generator: Adobe Illustrator 23.0.1, SVG Export Plug-In . SVG Version: 6.00 Build 0)  -->
<svg version="1.1" id="Layer_1" xmlns="http://www.w3.org/2000/svg" xmlns:xlink="http://www.w3.org/1999/xlink" x="0px" y="0px"
	 viewBox="0 0 60.3 60.3" style="enable-background:new 0 0 60.3 60.3;" xml:space="preserve">
<g>
	<path d="M42.1,25.9c-1-1-2.5-1-3.5,0l-6,6v-16c0-1.4-1.1-2.5-2.5-2.5s-2.5,1.1-2.5,2.5v16l-6-6c-1-1-2.5-1-3.5,0c-1,1-1,2.5,0,3.5
		l10.2,10.2l0,0c0,0,0,0,0,0c0,0,0.1,0.1,0.1,0.1c0,0,0,0,0,0c0,0,0,0,0,0c0,0,0,0,0,0c0,0,0,0,0,0c0,0,0,0,0,0c0,0,0,0,0,0
		c0,0,0,0,0,0c0,0,0,0,0,0c0,0,0,0,0,0c0,0,0,0,0,0c0,0,0,0,0,0c0,0,0,0,0.1,0v0c0,0,0,0,0,0c0,0,0,0,0,0c0,0,0,0,0.1,0c0,0,0,0,0,0
		c0,0,0,0,0.1,0c0,0,0,0,0.1,0c0,0,0,0,0,0c0.1,0,0.1,0.1,0.2,0.1c0,0,0,0,0,0c0,0,0,0,0.1,0s0,0,0.1,0c0,0,0,0,0,0c0,0,0,0,0.1,0
		c0,0,0,0,0,0c0,0,0.1,0,0.1,0c0,0,0,0,0,0c0,0,0.1,0,0.1,0c0,0,0,0,0,0c0,0,0.1,0,0.1,0c0,0,0,0,0,0c0,0,0.1,0,0.1,0c0,0,0,0,0,0
		c0,0,0.1,0,0.1,0c0,0,0,0,0,0c0,0,0,0,0,0c0,0,0.1,0,0.1,0c0,0,0,0,0,0c0,0,0.1,0,0.1,0c0,0,0,0,0,0c0,0,0.1,0,0.1,0c0,0,0,0,0,0
		c0,0,0.1,0,0.1,0c0,0,0,0,0,0c0,0,0,0,0.1,0c0,0,0,0,0,0c0,0,0.1,0,0.1,0c0,0,0,0,0,0c0,0,0.1,0,0.1,0c0,0,0,0,0,0c0,0,0.1,0,0.1,0
		c0,0,0,0,0,0c0,0,0.1,0,0.1,0c0,0,0,0,0,0c0.1,0,0.1-0.1,0.2-0.1c0,0,0,0,0,0c0.1,0,0.1-0.1,0.2-0.1l0,0c0.1,0,0.1-0.1,0.2-0.1
		c0,0,0,0,0,0c0,0,0.1,0,0.1-0.1l10.2-10.2C43,28.5,43,26.9,42.1,25.9z M38.9,42.9H21.3c-1.1,0-2,0.9-2,2c0,1.1,0.9,2,2,2h17.6
		c1.1,0,2-0.9,2-2C40.9,43.8,40,42.9,38.9,42.9z"/>
</g>
<path d="M30.1,0C13.5,0,0,13.5,0,30.1s13.5,30.1,30.1,30.1s30.1-13.5,30.1-30.1C60.2,13.5,46.8,0,30.1,0z M30.1,56.6
	c-14.6,0-26.5-11.8-26.5-26.5S15.5,3.7,30.1,3.7s26.5,11.8,26.5,26.5C56.6,44.7,44.7,56.6,30.1,56.6z"/>
</svg>
