<?xml version="1.0" encoding="utf-8"?>
<!-- Generator: Adobe Illustrator 25.2.1, SVG Export Plug-In . SVG Version: 6.00 Build 0)  -->
<!DOCTYPE svg PUBLIC "-//W3C//DTD SVG 1.1//EN" "http://www.w3.org/Graphics/SVG/1.1/DTD/svg11.dtd" [
	<!ENTITY ns_extend "http://ns.adobe.com/Extensibility/1.0/">
	<!ENTITY ns_ai "http://ns.adobe.com/AdobeIllustrator/10.0/">
	<!ENTITY ns_graphs "http://ns.adobe.com/Graphs/1.0/">
	<!ENTITY ns_vars "http://ns.adobe.com/Variables/1.0/">
	<!ENTITY ns_imrep "http://ns.adobe.com/ImageReplacement/1.0/">
	<!ENTITY ns_sfw "http://ns.adobe.com/SaveForWeb/1.0/">
	<!ENTITY ns_custom "http://ns.adobe.com/GenericCustomNamespace/1.0/">
	<!ENTITY ns_adobe_xpath "http://ns.adobe.com/XPath/1.0/">
]>
<svg version="1.1" id="bffacf74-d827-425b-a4fe-00a7986b08be" xmlns:x="&ns_extend;" xmlns:i="&ns_ai;" xmlns:graph="&ns_graphs;"
	 xmlns="http://www.w3.org/2000/svg" xmlns:xlink="http://www.w3.org/1999/xlink" x="0px" y="0px" viewBox="0 0 3397.4 1058.4"
	 style="enable-background:new 0 0 3397.4 1058.4;" xml:space="preserve">
<style type="text/css">
	.st0{fill:url(#SVGID_1_);}
	.st1{fill:#FFFFFF;}
	.st2{fill:url(#SVGID_2_);}
	.st3{fill:url(#SVGID_3_);}
	.st4{fill:url(#SVGID_4_);}
	.st5{fill:url(#SVGID_5_);}
	.st6{fill:url(#SVGID_6_);}
	.st7{fill:url(#SVGID_7_);}
	.st8{fill:#010101;}
</style>
<metadata>
	<sfw  xmlns="&ns_sfw;">
		<slices></slices>
		<sliceSourceBounds  bottomLeftOrigin="true" height="1058.4" width="3397.4" x="145.8" y="145.8"></sliceSourceBounds>
	</sfw>
</metadata>
<g>
	<g>
		<linearGradient id="SVGID_1_" gradientUnits="userSpaceOnUse" x1="0" y1="529.2" x2="1058.4" y2="529.2">
			<stop  offset="0" style="stop-color:#ED1E79"/>
			<stop  offset="0.57" style="stop-color:#9D2787"/>
			<stop  offset="1" style="stop-color:#662D91"/>
		</linearGradient>
		<circle class="st0" cx="529.2" cy="529.2" r="529.2"/>
		<path class="st1" d="M661,930.3c17.7-2.3,35.8-5.5,51.2-14.5s28-24.9,28.3-42.7c0.5-26.7-24.8-46.3-48.9-57.8
			c-39.4-18.7-82.6-28.2-126.2-27.8c-82.1,0.8-165.6,35.8-235,77.8c-21.1,12.8-21.8,18.8,2.1,27.7c19.9,7.4,40.1,13.9,60.6,19.4
			c41,11,83,18.3,125.4,21.6C565.9,937.8,613.7,936.5,661,930.3z"/>
		<path class="st1" d="M237.6,888.6c82.6,66.4,185.3,102.7,291.3,102.7c106,0.4,208.8-35.8,291.1-102.6c18.6-15,36.1-31.4,52.2-49.1
			c172.4-189.6,158.4-483-31.2-655.3S358,26,185.7,215.6s-158.4,483,31.2,655.3C223.6,877,230.5,882.9,237.6,888.6L237.6,888.6z"/>
		<linearGradient id="SVGID_2_" gradientUnits="userSpaceOnUse" x1="166.0475" y1="544.8603" x2="551.9049" y2="544.8603">
			<stop  offset="0" style="stop-color:#ED1E79"/>
			<stop  offset="0.57" style="stop-color:#9D2787"/>
			<stop  offset="1" style="stop-color:#662D91"/>
		</linearGradient>
		<path class="st2" d="M491.9,119.4c2,2.4,5.2,4.5,6,7.2c4.7,17.9,8.8,35.9,7.6,54.7c-0.9,15-0.5,30.1-1.4,45.1
			c-0.8,12.1-2.9,24.2-3.9,36.3c-0.6,7.4-0.1,14.9-0.1,22.3h3.2c1.8-18.3,3.9-36.6,5.3-55c1.5-18.7,1.5-37.5,3.6-56.2
			c2-18.4-2.5-37.4,4.1-55.2l2.5-0.7c1.9,2.8,4.5,5.3,5.6,8.3c9.7,26.4,16.6,53.3,16.7,81.6c0.1,25.3,0.1,50.6,0.5,75.9
			c0.1,7.4,2.4,14.8,2.5,22.2c0.2,10.3-0.7,20.6-0.9,30.9c-0.5,23.5,1,46.8,6.5,69.7c4.2,17.8,1.3,35.2-3.3,52.6
			c-3.3,12.4-5.7,25.1-8.9,37.5c-5.3,20.5-13.6,39.6-30.4,53.3c-15.1,12.3-21.9,29.8-30.5,46c-22.6,42.3-45.2,109.2-63.3,153.7
			c-29.6,73-55,126.2-96.4,193.1c-4.8,7.7-21.5,33.3-31.9,28.6c-3-1.4-5.3-4-7.8-6.3c-4.8-4.4-10.6-7.5-16.3-10.7
			c-25.3-14-49.6-29.8-72.8-47.1c-5.5-4.1-11-8.4-15.1-14c-8.3-11.4-10.2-17.8-1.3-28.2c5.3-6.2,10.6-12.7,16.5-18.3
			c21.1-20.2,40.2-42.4,56.8-66.4c17.6-25.1,36.9-48.9,54.8-73.8c11.7-16.3,22.2-33.4,32.9-50.3c10.9-17.2,21.6-34.5,31.8-52.1
			c9.3-16,18.5-32.1,26.8-48.6c10.8-21.3,20.8-43,30.8-64.7c8.2-18,15.7-36.4,23.7-54.6c4.8-10.8,10.1-21.4,14.8-32.2
			c2.7-5.8,4.8-11.9,6.3-18.1c3.2-14.8,6.4-29.6,8.5-44.6c2.8-19.4,4.7-38.8,6.7-58.3c1.6-15.6,3.1-31.2,4-46.9
			c1.7-29.8,3.1-59.7,4.4-89.5c0.3-6.4-0.8-12.8-1.2-19.3c-0.1-2.2,0-4.4,0-6.6L491.9,119.4z"/>
		<linearGradient id="SVGID_3_" gradientUnits="userSpaceOnUse" x1="542.4984" y1="777.8885" x2="843.5289" y2="777.8885">
			<stop  offset="0" style="stop-color:#ED1E79"/>
			<stop  offset="0.57" style="stop-color:#9D2787"/>
			<stop  offset="1" style="stop-color:#662D91"/>
		</linearGradient>
		<path class="st3" d="M841.5,888c-0.5,1-1.1,1.9-1.8,2.9c-4,5.7-9.8,9.7-15.5,13.8c-11.3,8.2-22.1,17.2-33.8,24.8
			c-12.5,8.2-26,14.8-39.4,21.3c-14.9,7.3-30.6,14.7-47.3,16.3c-16.4,1.6-11.6,31.8-19.5,17.4c-11.6-21.3-37.1-75.7-47.6-97.5
			c-10-20.8-19.1-42.1-27.5-63.7c-6.9-17.7-12.1-36-18.2-54c-3.7-10.8-7.6-21.6-11.5-32.5c-6.8-19.1-13.6-38.1-20.5-57.2
			c-4.9-13.8-9.9-27.5-15-41.1c-3.4-9.2-1.2-12.5,7.9-17.4c27.3-14.9,58.3-21.7,84.2-39.6c7.9-5.5,17.5-8.7,26.4-12.7
			c8-3.6,11.8-1.3,15.3,6.6c7.5,17.1,16.1,33.8,23.8,50.9c8,17.8,14.5,36.4,23.1,53.9c14.7,29.4,29.8,58.7,46.2,87.2
			c16.9,29.2,35,57.6,53.6,85.6C832.4,865.1,849.4,873.1,841.5,888z"/>
		<linearGradient id="SVGID_4_" gradientUnits="userSpaceOnUse" x1="536.1006" y1="419.575" x2="646.2054" y2="419.575">
			<stop  offset="0" style="stop-color:#ED1E79"/>
			<stop  offset="0.57" style="stop-color:#9D2787"/>
			<stop  offset="1" style="stop-color:#662D91"/>
		</linearGradient>
		<path class="st4" d="M569.9,607c-2.7-14.8-5.3-27.3-7.1-39.9c-1.1-7.6-4-12.4-11-16.9c-17-10.8-19.3-19.6-11.1-36.8
			c2.3-4.9,3.2-10.5,5.5-15.9c4.2,11.2,10.6,20.3,20.8,26.1c3.9,2,7.9,3.6,12.1,4.9c1.3,0.4,3.1-0.6,4.7-0.9
			c-0.8-1.6-1.3-3.9-2.6-4.8c-3.3-2.3-7.3-3.7-10.6-6c-11.4-7.8-15.8-20.3-21.1-32.2c-0.5-1.4-0.6-3-0.2-4.5
			c3.6-15.7,8.1-31.3,10.7-47.2c1.1-6.7-1.1-14.2-2.6-21.2c-2.7-12.2-3.1-23.6,0.1-36.2c4.4-17.1,3.4-35,0-52.8
			c-2.8-15.3-4.4-30.9-4.8-46.4c-0.4-10.4,19-42,32.1-44.2c0,2.6,0.1,5,0,7.4c-0.9,28.9,5.9,56.7,12,84.6
			c3.1,14.2,9.8,27.7,12.8,41.9c4.9,22.6,8.4,45.5,11.9,68.3c4,25.6,6.7,51.5,11.3,77c3,16.9,8.2,33.4,12.8,50c1.3,4.7,1,7.6-3.8,10
			c-9,4.4-17.6,9.5-26.5,14C601,592.3,586.6,599,569.9,607z"/>
		<linearGradient id="SVGID_5_" gradientUnits="userSpaceOnUse" x1="551.7322" y1="190.105" x2="576.46" y2="190.105">
			<stop  offset="0" style="stop-color:#ED1E79"/>
			<stop  offset="0.57" style="stop-color:#9D2787"/>
			<stop  offset="1" style="stop-color:#662D91"/>
		</linearGradient>
		<path class="st5" d="M551.8,253.2c0-16.1-0.2-32,0.1-47.9c0.3-14.9,0-29.9,1.9-44.6c1.3-9.7,5.9-19,9.5-28.3
			c0.8-2.1,3.5-3.6,5.3-5.4c2.4,2.7,6.5,5.1,6.8,8.1c1,7.1,0,14.4,0.1,21.6c0.3,21.8,0.8,43.7,0.8,65.5c-0.2,2.8-1.3,5.5-3.1,7.7
			C566.6,237.7,559.5,245,551.8,253.2z"/>
		<linearGradient id="SVGID_6_" gradientUnits="userSpaceOnUse" x1="533.6722" y1="135.8317" x2="556.0197" y2="135.8317">
			<stop  offset="0" style="stop-color:#ED1E79"/>
			<stop  offset="0.57" style="stop-color:#9D2787"/>
			<stop  offset="1" style="stop-color:#662D91"/>
		</linearGradient>
		<path class="st6" d="M542.6,166c-3-15.8-6.8-31.4-8.8-47.3c-1.2-9.3,8.1-15.9,15.4-11.8c3.1,1.7,5.5,6.5,6.2,10.3
			c2.4,12.1-2.6,23.1-6.3,34.2c-1.6,4.8-3.4,9.6-5.1,14.5L542.6,166z"/>
		<linearGradient id="SVGID_7_" gradientUnits="userSpaceOnUse" x1="0" y1="529.2001" x2="1058.3999" y2="529.2001">
			<stop  offset="0" style="stop-color:#ED1E79"/>
			<stop  offset="0.57" style="stop-color:#9D2787"/>
			<stop  offset="1" style="stop-color:#662D91"/>
		</linearGradient>
		<path class="st7" d="M529.2,0C236.9,0,0,236.9,0,529.2s236.9,529.2,529.2,529.2s529.2-236.9,529.2-529.2S821.5,0,529.2,0z
			 M872.2,839.7c-16.1,17.7-33.6,34.1-52.2,49.1c-82.3,66.8-185.1,103-291.1,102.6c-106-0.1-208.7-36.3-291.3-102.7h0
			c-7.1-5.7-14-11.7-20.8-17.8C27.3,698.6,13.4,405.1,185.7,215.6S651.5,12.1,841,184.4S1044.6,650.1,872.2,839.7z"/>
	</g>
	<g>
		<g>
			<g>
				<path class="st8" d="M1442.1,302.9c-6.8-17.5-16.5-32.1-29.2-43.8c-12.6-12.6-27.2-22.4-44.7-29.2
					c-17.5-6.8-36.9-10.7-58.3-10.7h-103.1c-2.9,0-4.9,1.9-4.9,4.9v99.2c0,2.9,1.9,4.9,4.9,4.9h49.6c2.9,0,4.9-1.9,4.9-4.9v-53.5
					c0-2.9,1.9-4.9,4.9-4.9h44.7c12.6,0,25.3,1.9,35,6.8c10.7,3.9,19.4,10.7,26.3,18.5c6.8,7.8,12.6,17.5,16.5,30.1
					c3.9,11.7,5.8,25.3,5.8,39.9c0,14.6-1.9,28.2-5.8,39.9c-3.9,11.7-9.7,21.4-16.5,30.1c-6.8,7.8-15.6,14.6-26.3,18.5
					c-10.7,3.9-22.4,6.8-35,6.8h-44.7c-2.9,0-4.9-1.9-4.9-4.9v-53.5c0-2.9-1.9-4.9-4.9-4.9h-49.6c-2.9,0-4.9,1.9-4.9,4.9v96.3
					c0,2.9,1.9,4.9,4.9,4.9h103.1c21.4,0,40.8-3.9,58.3-10.7c17.5-6.8,33.1-16.5,44.7-29.2c12.6-12.6,22.4-27.2,29.2-43.8
					c6.8-17.5,10.7-36,10.7-56.4C1452.7,337.9,1448.9,319.4,1442.1,302.9z"/>
				<path class="st8" d="M1557.8,264h110.8c2.9,0,4.9-1.9,4.9-4.9v-36c0-2.9-1.9-4.9-4.9-4.9h-169.2c-2.9,0-4.9,1.9-4.9,4.9v270.3
					c0,2.9,1.9,4.9,4.9,4.9h169.2c2.9,0,4.9-1.9,4.9-4.9v-36c0-2.9-1.9-4.9-4.9-4.9h-110.8c-2.9,0-4.9-1.9-4.9-4.9v-64.2
					c0-2.9,1.9-4.9,4.9-4.9h84.6c2.9,0,4.9-1.9,4.9-4.9v-35c0-2.9-1.9-4.9-4.9-4.9h-84.6c-2.9,0-4.9-1.9-4.9-4.9v-63.2
					C1553.9,265.9,1555.8,264,1557.8,264z"/>
				<path class="st8" d="M1950.6,219.3h-41.8c-2.9,0-4.9,1.9-4.9,4.9v155.6c0,3.9,0,8.8,0,12.6c0,4.9,1,9.7,1,14.6l-140-177.9
					c-1.9-1.9-2.9-3.9-3.9-4.9c-1-1-2.9-1.9-3.9-2.9c-1-1-2.9-1-4.9-1c-1.9,0-3.9,0-5.8,0h-26.3c-2.9,0-4.9,1.9-4.9,4.9v268.4
					c0,2.9,1.9,4.9,4.9,4.9h41.8c2.9,0,4.9-1.9,4.9-4.9V336.9c0-3.9,0-7.8,0-11.7c0-4.9,0-8.8-1-13.6l139,177
					c2.9,3.9,5.8,5.8,8.8,7.8c2.9,1.9,6.8,1.9,11.7,1.9h25.3c2.9,0,4.9-1.9,4.9-4.9V223.1C1955.4,221.2,1953.5,219.3,1950.6,219.3z"
					/>
				<path class="st8" d="M2207.3,219.3h-212c-2.9,0-4.9,1.9-4.9,4.9V262c0,2.9,1.9,4.9,4.9,4.9h72.9c2.9,0,4.9,1.9,4.9,4.9v223.6
					c0,2.9,1.9,4.9,4.9,4.9h48.6c2.9,0,4.9-1.9,4.9-4.9V269.8c0-2.9,1.9-4.9,4.9-4.9h72.9c2.9,0,4.9-1.9,4.9-4.9v-37.9
					C2212.1,221.2,2210.2,219.3,2207.3,219.3z"/>
				<path class="st8" d="M2461.1,492.5l-105-270.3c-1-1.9-1.9-2.9-3.9-2.9h-52.5c-1.9,0-3.9,1-3.9,2.9l-106,270.3
					c-1,2.9,1,5.8,3.9,5.8h38.9c4.9,0,8.8-1,11.7-3.9c2.9-2.9,5.8-5.8,6.8-8.8l17.5-50.6c1-1.9,1.9-2.9,3.9-2.9h105
					c1.9,0,3.9,1,3.9,2.9l17.5,50.6c1.9,3.9,3.9,6.8,6.8,8.8c2.9,1.9,6.8,3.9,12.6,3.9h37.9C2460.1,498.3,2463,495.4,2461.1,492.5z
					 M2359.9,392.3h-70c-2.9,0-4.9-2.9-3.9-5.8l28.2-78.8c1.9-4.9,3.9-9.7,5.8-15.6c0-1.9,1-2.9,1-4.9c1-3.9,6.8-3.9,8.8,0
					c0,1,1,2.9,1,3.9c1.9,5.8,3.9,11.7,5.8,15.6l28.2,79.7C2365.8,389.4,2363.8,392.3,2359.9,392.3z"/>
				<path class="st8" d="M2699.3,454.6l-20.4-21.4c-1.9-1.9-4.9-3.9-7.8-3.9c-1.9,0-3.9,0-4.9,1c-1.9,1-2.9,1.9-4.9,2.9
					c-3.9,3.9-7.8,6.8-12.6,8.8c-3.9,2.9-8.8,4.9-12.6,5.8c-4.9,1.9-9.7,2.9-14.6,2.9c-5.8,1-11.7,1-17.5,1
					c-10.7,0-21.4-1.9-31.1-5.8c-9.7-3.9-18.5-10.7-25.3-18.5s-12.6-18.5-17.5-30.1c-3.9-11.7-5.8-25.3-5.8-39.9s1.9-28.2,5.8-39.9
					c3.9-11.7,9.7-21.4,16.5-29.2c6.8-7.8,15.6-14.6,25.3-18.5c9.7-3.9,20.4-6.8,32.1-6.8c10.7,0,19.4,1,26.3,2.9
					c6.8,1.9,12.6,4.9,17.5,7.8c4.9,2.9,8.8,4.9,11.7,6.8c2.9,1.9,5.8,2.9,9.7,2.9c2.9,0,5.8-1,6.8-1.9c1.9-1,2.9-2.9,4.9-4.9
					l17.5-23.3c1-1.9,1-4.9-1-5.8c-4.9-4.9-9.7-8.8-15.6-12.6c-6.8-4.9-13.6-8.8-22.4-11.7c-7.8-2.9-16.5-5.8-25.3-7.8
					c-8.8-1.9-18.5-2.9-29.2-2.9c-13.6,0-26.3,1.9-38.9,4.9c-11.7,2.9-23.3,7.8-34,13.6c-10.7,5.8-19.4,13.6-27.2,21.4
					c-7.8,8.8-15.6,17.5-20.4,28.2c-5.8,10.7-9.7,22.4-13.6,35c-2.9,12.6-4.9,25.3-4.9,39.9c0,20.4,2.9,39.9,9.7,57.4
					s15.6,32.1,27.2,44.7c11.7,12.6,26.3,22.4,42.8,30.1c16.5,6.8,35,10.7,56.4,10.7c23.3,0,42.8-3.9,59.3-10.7
					c15.6-6.8,29.2-16.5,39.9-29.2C2701.2,458.4,2701.2,456.5,2699.3,454.6z"/>
				<path class="st8" d="M2988.1,301.9c-6.8-17.5-16.5-32.1-29.2-44.7c-12.6-12.6-27.2-22.4-44.7-30.1
					c-17.5-6.8-36.9-10.7-58.3-10.7c-21.4,0-40.8,3.9-58.3,10.7c-17.5,6.8-33.1,17.5-45.7,30.1c-12.6,12.6-22.4,28.2-29.2,44.7
					c-6.8,17.5-10.7,36-10.7,56.4c0,20.4,3.9,38.9,10.7,56.4c6.8,17.5,16.5,32.1,29.2,45.7c12.6,12.6,27.2,22.4,45.7,30.1
					c17.5,6.8,36.9,10.7,58.3,10.7c21.4,0,40.8-3.9,58.3-10.7c17.5-6.8,33.1-17.5,44.7-30.1c12.6-12.6,22.4-28.2,29.2-45.7
					c6.8-17.5,10.7-36,10.7-56.4C2998.7,337.9,2994.9,319.4,2988.1,301.9z M2933.6,398.2c-3.9,11.7-9.7,21.4-16.5,29.2
					c-6.8,7.8-16.5,14.6-26.3,18.5c-10.7,3.9-22.4,6.8-35,6.8c-12.6,0-25.3-1.9-35-6.8c-10.7-3.9-19.4-10.7-26.3-18.5
					c-6.8-7.8-12.6-17.5-16.5-29.2c-3.9-11.7-5.8-25.3-5.8-39.9c0-14.6,1.9-28.2,5.8-39.9c3.9-11.7,9.7-21.4,16.5-29.2
					c6.8-7.8,16.5-14.6,26.3-18.5c10.7-3.9,22.4-6.8,35-6.8c12.6,0,24.3,1.9,35,6.8c10.7,3.9,19.4,10.7,26.3,18.5
					c6.8,7.8,12.6,18.5,16.5,29.2c3.9,11.7,5.8,24.3,5.8,39.9C2939.4,372.9,2937.5,386.5,2933.6,398.2z"/>
				<path class="st8" d="M3094,219.3h-49.6c-2.9,0-4.9,1.9-4.9,4.9v269.3c0,2.9,1.9,4.9,4.9,4.9h49.6c2.9,0,4.9-1.9,4.9-4.9V223.1
					C3098.9,221.2,3097,219.3,3094,219.3z"/>
				<path class="st8" d="M3392.5,219.3h-41.8c-2.9,0-4.9,1.9-4.9,4.9v155.6c0,3.9,0,8.8,0,12.6c0,4.9,1,9.7,1,14.6l-140-177.9
					c-1.9-1.9-2.9-3.9-3.9-4.9c-1-1-2.9-1.9-3.9-2.9c-1-1-2.9-1-4.9-1s-3.9,0-5.8,0h-26.3c-2.9,0-4.9,1.9-4.9,4.9v268.4
					c0,2.9,1.9,4.9,4.9,4.9h41.8c2.9,0,4.9-1.9,4.9-4.9V336.9c0-3.9,0-7.8,0-11.7c0-4.9,0-8.8-1-13.6l139,177
					c2.9,3.9,5.8,5.8,8.8,7.8c2.9,1.9,6.8,1.9,11.7,1.9h25.3c2.9,0,4.9-1.9,4.9-4.9V223.1C3396.4,221.2,3394.5,219.3,3392.5,219.3z"
					/>
			</g>
		</g>
		<g>
			<path d="M1350.6,598.1v176.8h-36.8v-76.2h-77.9v76.2h-36.8V598.1h36.8v75.1h77.9v-75.1H1350.6z"/>
			<path d="M1460,745.7c5.9,0,11.3-1,16-3c4.7-2,8.7-4.8,11.9-8.5c3.2-3.7,5.7-8.1,7.4-13.3c1.7-5.2,2.6-11,2.6-17.5V598.1h36.6
				v105.3c0,10.7-1.7,20.6-5.2,29.6c-3.5,9-8.4,16.7-14.8,23.2c-6.4,6.5-14.2,11.6-23.4,15.2c-9.2,3.7-19.5,5.5-31.1,5.5
				c-11.5,0-21.9-1.8-31.1-5.5c-9.2-3.7-17-8.7-23.5-15.2c-6.4-6.5-11.4-14.2-14.8-23.2c-3.5-9-5.2-18.8-5.2-29.6V598.1h36.6v105.3
				c0,6.5,0.9,12.4,2.6,17.5c1.7,5.2,4.2,9.6,7.4,13.3c3.2,3.7,7.2,6.5,11.9,8.5C1448.6,744.7,1454,745.7,1460,745.7z"/>
			<path d="M1632.1,598.1c11.9,0,22,1.1,30.4,3.4c8.4,2.2,15.3,5.4,20.6,9.5c5.3,4.1,9.2,9.1,11.6,14.9c2.4,5.9,3.7,12.4,3.7,19.6
				c0,4.1-0.6,8-1.8,11.7c-1.2,3.7-3,7.3-5.5,10.5c-2.5,3.3-5.7,6.3-9.6,9c-3.9,2.7-8.5,5-13.9,6.8c12,2.8,20.9,7.5,26.7,13.9
				c5.8,6.4,8.7,14.7,8.7,25c0,7.5-1.4,14.4-4.3,20.8c-2.9,6.4-7.1,12-12.6,16.7c-5.5,4.7-12.3,8.4-20.4,11c-8.1,2.6-17.4,4-27.8,4
				h-68.5V598.1H1632.1z M1605.9,625.9v47.8h24c5.1,0,9.7-0.4,13.7-1.3c4-0.9,7.3-2.2,10-4.1c2.7-1.9,4.7-4.3,6.2-7.4
				c1.4-3,2.1-6.7,2.1-11c0-4.4-0.6-8.1-1.8-11.2c-1.2-3.1-3-5.6-5.4-7.4c-2.4-1.9-5.5-3.2-9.3-4.1c-3.7-0.9-8.2-1.3-13.3-1.3
				H1605.9z M1637.2,746.9c5.8,0,10.7-0.7,14.4-2.1c3.8-1.4,6.8-3.3,9.1-5.7c2.3-2.4,3.9-5.1,4.8-8.1c0.9-3,1.3-6.2,1.3-9.4
				c0-3.6-0.5-6.8-1.6-9.6c-1.1-2.8-2.8-5.3-5.1-7.3c-2.4-2-5.4-3.5-9.2-4.6c-3.8-1.1-8.4-1.6-14-1.6h-31.1v48.4H1637.2z"/>
			<path d="M1935.4,774.9H1907c-3.2,0-5.7-0.8-7.7-2.3c-2-1.5-3.5-3.4-4.4-5.8l-11.9-33.8h-70.4l-11.9,33.8c-0.8,2-2.2,3.9-4.3,5.5
				c-2,1.7-4.6,2.5-7.7,2.5h-28.6l69.1-176.8h37.4L1935.4,774.9z M1874,707.7l-19.1-54.1c-1.1-2.8-2.3-6.2-3.6-10
				c-1.3-3.8-2.5-8-3.6-12.4c-1.1,4.6-2.3,8.8-3.6,12.6c-1.3,3.9-2.5,7.2-3.6,10.1l-19,53.9H1874z"/>
			<path d="M2011.5,598.1c12.1,0,22.6,1.4,31.4,4.3c8.8,2.8,16.1,6.8,21.8,11.9c5.7,5.1,9.9,11.1,12.6,18.1c2.7,7,4.1,14.6,4.1,22.8
				c0,8.7-1.4,16.7-4.3,23.9c-2.8,7.2-7.2,13.4-12.9,18.6c-5.8,5.2-13,9.2-21.8,12.1c-8.8,2.9-19.1,4.3-30.8,4.3h-23.2v60.8h-36.6
				V598.1H2011.5z M2011.5,686.1c11.5,0,19.8-2.8,25.2-8.3c5.3-5.5,8-13.1,8-22.7c0-4.4-0.7-8.4-2-12c-1.3-3.6-3.4-6.7-6.1-9.3
				c-2.7-2.6-6.2-4.5-10.3-5.9c-4.1-1.4-9.1-2.1-14.7-2.1h-23.2v60.2H2011.5z"/>
			<path d="M2164.3,598.1c12.1,0,22.6,1.4,31.4,4.3c8.8,2.8,16.1,6.8,21.8,11.9c5.7,5.1,9.9,11.1,12.6,18.1c2.7,7,4.1,14.6,4.1,22.8
				c0,8.7-1.4,16.7-4.3,23.9c-2.8,7.2-7.2,13.4-12.9,18.6c-5.8,5.2-13,9.2-21.8,12.1c-8.8,2.9-19.1,4.3-30.8,4.3h-23.2v60.8h-36.6
				V598.1H2164.3z M2164.3,686.1c11.5,0,19.8-2.8,25.2-8.3c5.3-5.5,8-13.1,8-22.7c0-4.4-0.7-8.4-2-12c-1.3-3.6-3.4-6.7-6.1-9.3
				c-2.7-2.6-6.2-4.5-10.3-5.9c-4.1-1.4-9.1-2.1-14.7-2.1h-23.2v60.2H2164.3z"/>
		</g>
	</g>
</g>
</svg>
