<?xml version="1.0" encoding="utf-8"?>
<!-- Generator: Adobe Illustrator 22.1.0, SVG Export Plug-In . SVG Version: 6.00 Build 0)  -->
<svg version="1.1" id="Layer_1" xmlns="http://www.w3.org/2000/svg" xmlns:xlink="http://www.w3.org/1999/xlink" x="0px" y="0px"
	 viewBox="0 0 60.4 59.4" style="enable-background:new 0 0 60.4 59.4;" xml:space="preserve">
<style type="text/css">
	.st0{fill:#606060;}
</style>
<g>
	<path class="st0" d="M17.8,22.7h4.3v-6.8c0-4.5,3.6-8.1,8.1-8.1c4.5,0,8.1,3.6,8.1,8.1v6.8h4.3c0.9,0,1.7,0.1,2.6,0.3l1.1,0.3v-7.4
		c0-8.9-7.2-16.1-16.1-16.1S14.1,7,14.1,15.9v7.4l1.1-0.3C16.1,22.8,17,22.7,17.8,22.7z"/>
	<path class="st0" d="M42.6,24.3H17.8c-5.6,0-10.1,4.5-10.1,10.1v14c0,6.1,5,11.1,11.1,11.1h22.7c6.1,0,11.1-5,11.1-11.1v-14
		C52.6,28.8,48.1,24.3,42.6,24.3z M34,43v5.8c0,2.1-1.7,3.8-3.8,3.8c-2.1,0-3.8-1.7-3.8-3.8V43c-1.7-1.2-2.8-3.2-2.8-5.4
		c0-3.7,3-6.6,6.6-6.6s6.6,3,6.6,6.6C36.8,39.9,35.7,41.8,34,43z"/>
</g>
</svg>
