<?xml version="1.0" encoding="utf-8"?>
<!-- Generator: Adobe Illustrator 22.1.0, SVG Export Plug-In . SVG Version: 6.00 Build 0)  -->
<svg version="1.1" id="Layer_1" xmlns="http://www.w3.org/2000/svg" xmlns:xlink="http://www.w3.org/1999/xlink" x="0px" y="0px"
	 viewBox="0 0 60.4 59.4" style="enable-background:new 0 0 60.4 59.4;" xml:space="preserve">
<style type="text/css">
	.st0{fill:#606060;}
</style>
<g>
	<g>
		<g>
			<g>
				<path class="st0" d="M57.1,7.6L7,7.6c-1,0-1.7-0.8-1.7-1.7c0-1,0.8-1.7,1.7-1.7l43.6,0c1.1,0,2.1-0.9,2.1-2.1S51.7,0,50.6,0h-45
					C2.9,0,0.8,2.2,0.8,4.8v43.6c0,1.4,1.1,2.5,2.5,2.5h5.3c3.2,5.1,8.9,8.5,15.4,8.5s12.2-3.4,15.4-8.5h17.7c1.4,0,2.5-1.1,2.5-2.5
					V10.1C59.6,8.7,58.5,7.6,57.1,7.6z M24,55.9c-8.2,0-14.8-6.6-14.8-14.8c0-0.6,0-1.2,0.1-1.8c0.9-7.4,7.2-12.9,14.7-12.9
					c1.9,0,3.8,0.4,5.5,1.1c5.6,2.3,9.3,7.7,9.3,13.7C38.8,49.3,32.1,55.9,24,55.9z M55.8,24.5H42.3c-2.6,0-4.6-2.1-4.6-4.6
					c0-2.6,2.1-4.6,4.6-4.6h13.5V24.5z M40.7,19.9c0,1.1,0.9,2,2,2s2-0.9,2-2c0-1.1-0.9-2-2-2S40.7,18.8,40.7,19.9z"/>
			</g>
		</g>
	</g>
	<path class="st0" d="M18.8,44.9L16.4,49c0,0,1,1.3,3.7,2.4l1.4-3.7l0.9-2.5l1-2.8c0,0,0.3-0.9,0.3-0.9l0-0.1c0,0,0,0,0,0l0,0l0,0
		c0,0,0,0,0,0l0,0l0,0l0,0.1l0.1,0.3l0.2,0.5l0.7,2l0.6,1.8l0.9,2.7l0.7,1.9l0.4,1c0,0,2.2-0.6,4-2.5L30,47l-0.9-1.5l-0.9-1.7
		l-0.7-1.5L27,40.9l-0.5-1.4L26,38.2l-0.5-1.5l-0.5-1.6l-0.4-1.6l-0.5-1.8l-0.3-0.9l-0.5,1.7l-0.7,2.3l-0.6,1.8l-0.7,2l-0.6,1.6
		l-0.6,1.6l-0.7,1.5L18.8,44.9z"/>
</g>
</svg>
