<?xml version="1.0" encoding="utf-8"?>
<!-- Generator: Adobe Illustrator 25.0.0, SVG Export Plug-In . SVG Version: 6.00 Build 0)  -->
<!DOCTYPE svg PUBLIC "-//W3C//DTD SVG 1.1//EN" "http://www.w3.org/Graphics/SVG/1.1/DTD/svg11.dtd" [
	<!ENTITY ns_extend "http://ns.adobe.com/Extensibility/1.0/">
	<!ENTITY ns_ai "http://ns.adobe.com/AdobeIllustrator/10.0/">
	<!ENTITY ns_graphs "http://ns.adobe.com/Graphs/1.0/">
	<!ENTITY ns_vars "http://ns.adobe.com/Variables/1.0/">
	<!ENTITY ns_imrep "http://ns.adobe.com/ImageReplacement/1.0/">
	<!ENTITY ns_sfw "http://ns.adobe.com/SaveForWeb/1.0/">
	<!ENTITY ns_custom "http://ns.adobe.com/GenericCustomNamespace/1.0/">
	<!ENTITY ns_adobe_xpath "http://ns.adobe.com/XPath/1.0/">
]>
<svg version="1.1" id="Layer_1" xmlns:x="&ns_extend;" xmlns:i="&ns_ai;" xmlns:graph="&ns_graphs;"
	 xmlns="http://www.w3.org/2000/svg" xmlns:xlink="http://www.w3.org/1999/xlink" x="0px" y="0px" viewBox="0 0 18 14"
	 style="enable-background:new 0 0 18 14;" xml:space="preserve">
<style type="text/css">
	.st0{fill:#00b7e2;}
</style>
<metadata>
	<sfw  xmlns="&ns_sfw;">
		<slices></slices>
		<sliceSourceBounds  bottomLeftOrigin="true" height="14" width="18" x="7" y="17"></sliceSourceBounds>
	</sfw>
</metadata>
<g>
	<path class="st0" d="M15,7c0,0.6-0.4,1-1,1H3.1l3.6,4.4c0.4,0.4,0.3,1.1-0.1,1.4c0,0,0,0,0,0C6.5,13.9,6.2,14,6,14
		c-0.3,0-0.6-0.1-0.8-0.4l-5-6c-0.3-0.4-0.3-0.9,0-1.3l5-6c0.4-0.4,1-0.5,1.4-0.1s0.5,1,0.1,1.4l0,0L3.1,6H14C14.6,6,15,6.4,15,7z
		 M18,6.6c0-0.1-0.1-0.2-0.2-0.3c0,0-0.1-0.1-0.1-0.1c-0.1,0-0.1-0.1-0.2-0.1c-0.1,0-0.1-0.1-0.2-0.1c-0.1,0-0.3,0-0.4,0
		c-0.1,0-0.1,0-0.2,0.1c-0.1,0-0.1,0.1-0.2,0.1l-0.1,0.1c-0.1,0.1-0.2,0.2-0.2,0.3C16.1,6.7,16,6.9,16,7c0,0.3,0.1,0.5,0.3,0.7
		c0.1,0.1,0.2,0.2,0.3,0.2C16.7,8,16.9,8,17,8c0.3,0,0.5-0.1,0.7-0.3C18,7.4,18.1,7,18,6.6L18,6.6z"/>
</g>
</svg>
