<?xml version="1.0" encoding="utf-8"?>
<!-- Generator: Adobe Illustrator 23.0.1, SVG Export Plug-In . SVG Version: 6.00 Build 0)  -->
<svg version="1.1" id="Layer_1" xmlns="http://www.w3.org/2000/svg" xmlns:xlink="http://www.w3.org/1999/xlink" x="0px" y="0px"
	 viewBox="0 0 94.2 94.2" style="enable-background:new 0 0 94.2 94.2;" xml:space="preserve">
<title>Artboard 27</title>
<g>
	<path d="M63.3,30.8c-2.3-2.3-6.1-2.3-8.5,0c0,0,0,0,0,0l-7.8,7.8l-7.8-7.8c-2.3-2.3-6.1-2.3-8.5,0c-2.3,2.3-2.3,6.1,0,8.5l7.8,7.8
		l-7.8,7.8c-2.3,2.3-2.4,6.1,0,8.5c2.3,2.3,6.1,2.4,8.5,0c0,0,0,0,0,0l7.8-7.8l7.8,7.8c2.3,2.3,6.1,2.3,8.5,0c2.3-2.3,2.3-6.1,0-8.5
		l-7.8-7.8l7.8-7.8C65.7,37,65.7,33.2,63.3,30.8C63.3,30.8,63.3,30.8,63.3,30.8z"/>
</g>
<path d="M47.1,0C21.1,0,0,21.1,0,47.1s21.1,47.1,47.1,47.1s47.1-21.1,47.1-47.1C94.1,21.1,73.1,0,47.1,0z M47.1,88.4
	c-22.8,0-41.3-18.5-41.3-41.3S24.3,5.7,47.1,5.7s41.3,18.5,41.3,41.3C88.4,69.9,69.9,88.4,47.1,88.4z"/>
</svg>
