<?xml version="1.0" encoding="utf-8"?>
<!-- Generator: Adobe Illustrator 23.0.3, SVG Export Plug-In . SVG Version: 6.00 Build 0)  -->
<!DOCTYPE svg PUBLIC "-//W3C//DTD SVG 1.1//EN" "http://www.w3.org/Graphics/SVG/1.1/DTD/svg11.dtd" [
	<!ENTITY ns_extend "http://ns.adobe.com/Extensibility/1.0/">
	<!ENTITY ns_ai "http://ns.adobe.com/AdobeIllustrator/10.0/">
	<!ENTITY ns_graphs "http://ns.adobe.com/Graphs/1.0/">
	<!ENTITY ns_vars "http://ns.adobe.com/Variables/1.0/">
	<!ENTITY ns_imrep "http://ns.adobe.com/ImageReplacement/1.0/">
	<!ENTITY ns_sfw "http://ns.adobe.com/SaveForWeb/1.0/">
	<!ENTITY ns_custom "http://ns.adobe.com/GenericCustomNamespace/1.0/">
	<!ENTITY ns_adobe_xpath "http://ns.adobe.com/XPath/1.0/">
]>
<svg version="1.1" id="Layer_1" xmlns:x="&ns_extend;" xmlns:i="&ns_ai;" xmlns:graph="&ns_graphs;"
	 xmlns="http://www.w3.org/2000/svg" xmlns:xlink="http://www.w3.org/1999/xlink" x="0px" y="0px" viewBox="0 0 64 65.2"
	 style="enable-background:new 0 0 64 65.2;" xml:space="preserve">
<style type="text/css">
	.st0{fill:#FFFFFF;}
</style>
<metadata>
	<sfw  xmlns="&ns_sfw;">
		<slices></slices>
		<sliceSourceBounds  bottomLeftOrigin="true" height="61.5" width="53.2" x="5.4" y="17.2"></sliceSourceBounds>
	</sfw>
</metadata>
<g>
	<path class="st0" d="M48.7,15.2c0-2.7-2.2-4.9-4.9-4.9h-2.9H10.2c-2.7,0-4.8,2.2-4.8,4.8v42.8c0,2.7,2.2,4.8,4.8,4.8h33.6
		c2.7,0,4.8-2.2,4.8-4.8v-40C48.7,17.9,48.7,15.2,48.7,15.2z M45,19.7v36.6c0,1.5-1.2,2.8-2.8,2.8H11.8c-1.5,0-2.8-1.2-2.8-2.8V16.7
		c0-1.5,1.2-2.8,2.8-2.8h27.3h3.1c1.5,0,2.7,1.2,2.8,2.7L45,19.7z"/>
	<g>
		<path class="st0" d="M38.3,24.4H15.7c-0.8,0-1.4-0.6-1.4-1.4c0-0.8,0.6-1.4,1.4-1.4h22.6c0.8,0,1.4,0.6,1.4,1.4
			S39.1,24.4,38.3,24.4z"/>
		<path class="st0" d="M38.3,31.1H15.7c-0.8,0-1.4-0.6-1.4-1.4c0-0.8,0.6-1.4,1.4-1.4h22.6c0.8,0,1.4,0.6,1.4,1.4
			C39.7,30.5,39.1,31.1,38.3,31.1z"/>
		<path class="st0" d="M38.3,37.9H15.7c-0.8,0-1.4-0.6-1.4-1.4s0.6-1.4,1.4-1.4h22.6c0.8,0,1.4,0.6,1.4,1.4S39.1,37.9,38.3,37.9z"/>
		<path class="st0" d="M38.3,44.7H15.7c-0.8,0-1.4-0.6-1.4-1.4s0.6-1.4,1.4-1.4h22.6c0.8,0,1.4,0.6,1.4,1.4S39.1,44.7,38.3,44.7z"/>
		<path class="st0" d="M38.3,51.5H15.7c-0.8,0-1.4-0.6-1.4-1.4s0.6-1.4,1.4-1.4h22.6c0.8,0,1.4,0.6,1.4,1.4S39.1,51.5,38.3,51.5z"/>
	</g>
	<g>
		<path class="st0" d="M53.7,1.3h-2.9H20.2c-2.7,0-4.8,2.2-4.8,4.8v2H19V7.7c0-1.5,1.2-2.8,2.8-2.8H49h3.1c1.5,0,2.7,1.2,2.8,2.7
			l0.1,3.1v36.6c0,1.5-1.2,2.8-2.8,2.8h-1.3v3.6h2.9c2.7,0,4.8-2.2,4.8-4.8v-40V6.1C58.6,3.4,56.4,1.3,53.7,1.3z"/>
	</g>
</g>
</svg>
