<?xml version="1.0" encoding="utf-8"?>
<!-- Generator: Adobe Illustrator 22.1.0, SVG Export Plug-In . SVG Version: 6.00 Build 0)  -->
<svg version="1.1" id="Layer_1" xmlns="http://www.w3.org/2000/svg" xmlns:xlink="http://www.w3.org/1999/xlink" x="0px" y="0px"
	 viewBox="0 0 60.4 59.4" style="enable-background:new 0 0 60.4 59.4;" xml:space="preserve">
<style type="text/css">
	.st0{fill:#606060;}
</style>
<g>
	<g>
		<path class="st0" d="M30.2,30.9c8.5,0,15.4-6.9,15.4-15.4S38.7,0,30.2,0S14.8,6.9,14.8,15.4S21.7,30.9,30.2,30.9z"/>
		<path class="st0" d="M45.7,32.9c-0.4-0.3-1-0.2-1.4,0.1c-4.1,3.3-9,5-14.2,5S20.1,36.3,16,33c-0.4-0.3-0.9-0.4-1.4-0.1
			C5.8,38.4,0.5,47.8,0.5,58.2c0,0.7,0.5,1.2,1.2,1.2h57c0.7,0,1.2-0.5,1.2-1.2C59.9,47.8,54.6,38.4,45.7,32.9z"/>
	</g>
</g>
</svg>
