<?xml version="1.0" encoding="utf-8"?>
<!-- Generator: Adobe Illustrator 23.1.0, SVG Export Plug-In . SVG Version: 6.00 Build 0)  -->
<!DOCTYPE svg PUBLIC "-//W3C//DTD SVG 1.1//EN" "http://www.w3.org/Graphics/SVG/1.1/DTD/svg11.dtd" [
	<!ENTITY ns_extend "http://ns.adobe.com/Extensibility/1.0/">
	<!ENTITY ns_ai "http://ns.adobe.com/AdobeIllustrator/10.0/">
	<!ENTITY ns_graphs "http://ns.adobe.com/Graphs/1.0/">
	<!ENTITY ns_vars "http://ns.adobe.com/Variables/1.0/">
	<!ENTITY ns_imrep "http://ns.adobe.com/ImageReplacement/1.0/">
	<!ENTITY ns_sfw "http://ns.adobe.com/SaveForWeb/1.0/">
	<!ENTITY ns_custom "http://ns.adobe.com/GenericCustomNamespace/1.0/">
	<!ENTITY ns_adobe_xpath "http://ns.adobe.com/XPath/1.0/">
]>
<svg version="1.1" id="Layer_1" xmlns:x="&ns_extend;" xmlns:i="&ns_ai;" xmlns:graph="&ns_graphs;"
	 xmlns="http://www.w3.org/2000/svg" xmlns:xlink="http://www.w3.org/1999/xlink" x="0px" y="0px" viewBox="0 0 320 320"
	 style="enable-background:new 0 0 320 320;" xml:space="preserve">
<style type="text/css">
	.st0{fill:#273374;}
	.st1{fill:#FFFFFF;}
	.st2{fill:#CE202B;}
</style>
<metadata>
	<sfw  xmlns="&ns_sfw;">
		<slices></slices>
		<sliceSourceBounds  bottomLeftOrigin="true" height="319.4" width="319.4" x="0" y="-319.4"></sliceSourceBounds>
	</sfw>
</metadata>
<g id="XMLID_475_">
	<path id="XMLID_487_" class="st0" d="M106.6,9.1v88.3L34.1,61.1C52.7,37.5,77.7,19.3,106.6,9.1z"/>
	<path id="XMLID_486_" class="st0" d="M285.3,61.1l-72.4,36.3V9.1C241.7,19.3,266.7,37.5,285.3,61.1z"/>
	<path id="XMLID_484_" class="st0" d="M106.6,222v88.2c-28.8-10.2-53.9-28.4-72.4-52L106.6,222z"/>
	<path id="XMLID_483_" class="st0" d="M285.3,258.2c-18.6,23.6-43.6,41.8-72.4,52V222L285.3,258.2z"/>
	<path id="XMLID_482_" class="st1" d="M319.4,159.7c0,10.9-1.1,21.6-3.2,31.9c-1.5,7.3-3.5,14.3-5.9,21.2h-44.7l36.8,18.5
		c-4.8,9.6-10.6,18.6-17.2,26.9L212.8,222v88.2c-6.8,2.5-13.9,4.4-21.2,5.9c-10.3,2.1-21,3.2-32,3.2c-10.9,0-21.6-1.1-31.9-3.2
		c-7.3-1.5-14.3-3.4-21.2-5.9V222l-72.4,36.2c-2.2-2.8-4.4-5.8-6.4-8.8l73.2-36.6H53.2L16.8,231c-6.2-12.3-10.8-25.5-13.6-39.4
		c-2.1-10.3-3.2-21-3.2-31.9c0-11,1.1-21.6,3.2-32c1.5-7.2,3.4-14.3,5.9-21.2h44.4L16.9,88.2c4.8-9.6,10.6-18.7,17.2-27.1l72.4,36.3
		V9.1c6.9-2.5,13.9-4.4,21.2-5.9c10.3-2.1,21-3.2,31.9-3.2c11,0,21.6,1.1,32,3.2c7.2,1.5,14.3,3.4,21.2,5.9v88.3l72.4-36.3
		c2.2,2.8,4.3,5.7,6.3,8.6l-73.5,36.8h47.7l36.6-18.3c6.2,12.4,10.9,25.6,13.7,39.5C318.3,138.1,319.4,148.7,319.4,159.7z"/>
	<path id="XMLID_481_" class="st2" d="M53.5,106.5H9.1c2.2-6.3,4.8-12.4,7.8-18.3L53.5,106.5z"/>
	<path id="XMLID_480_" class="st2" d="M310.3,212.8c-2.2,6.3-4.9,12.5-7.8,18.5l-36.8-18.5H310.3z"/>
	<path id="XMLID_479_" class="st2" d="M302.5,88.2l-36.6,18.3h-47.7l73.5-36.8C295.6,75.6,299.3,81.8,302.5,88.2z"/>
	<path id="XMLID_478_" class="st2" d="M100.9,212.8l-73.2,36.6c-4-5.8-7.6-12-10.9-18.4l36.4-18.2H100.9z"/>
	<path id="XMLID_476_" class="st2" d="M319.4,159.7c0,10.9-1.1,21.6-3.2,31.9H191.7v124.5c-10.3,2.1-21,3.2-32,3.2
		c-10.9,0-21.6-1.1-31.9-3.2V191.6H3.2c-2.1-10.3-3.2-21-3.2-31.9c0-11,1.1-21.6,3.2-32h124.5V3.2c10.3-2.1,21-3.2,31.9-3.2
		c11,0,21.6,1.1,32,3.2v124.5h124.5C318.3,138.1,319.4,148.7,319.4,159.7z"/>
</g>
</svg>
