<?xml version="1.0" encoding="utf-8"?>
<!-- Generator: Adobe Illustrator 23.1.0, SVG Export Plug-In . SVG Version: 6.00 Build 0)  -->
<!DOCTYPE svg PUBLIC "-//W3C//DTD SVG 1.1//EN" "http://www.w3.org/Graphics/SVG/1.1/DTD/svg11.dtd" [
	<!ENTITY ns_extend "http://ns.adobe.com/Extensibility/1.0/">
	<!ENTITY ns_ai "http://ns.adobe.com/AdobeIllustrator/10.0/">
	<!ENTITY ns_graphs "http://ns.adobe.com/Graphs/1.0/">
	<!ENTITY ns_vars "http://ns.adobe.com/Variables/1.0/">
	<!ENTITY ns_imrep "http://ns.adobe.com/ImageReplacement/1.0/">
	<!ENTITY ns_sfw "http://ns.adobe.com/SaveForWeb/1.0/">
	<!ENTITY ns_custom "http://ns.adobe.com/GenericCustomNamespace/1.0/">
	<!ENTITY ns_adobe_xpath "http://ns.adobe.com/XPath/1.0/">
]>
<svg version="1.1" id="Layer_9" xmlns:x="&ns_extend;" xmlns:i="&ns_ai;" xmlns:graph="&ns_graphs;"
	 xmlns="http://www.w3.org/2000/svg" xmlns:xlink="http://www.w3.org/1999/xlink" x="0px" y="0px" viewBox="0 0 236.4 236.4"
	 style="enable-background:new 0 0 236.4 236.4;" xml:space="preserve">
<style type="text/css">
	.st0{fill:#FFFFFF;}
	.st1{fill:url(#SVGID_1_);}
</style>
<metadata>
	<sfw  xmlns="&ns_sfw;">
		<slices></slices>
		<sliceSourceBounds  bottomLeftOrigin="true" height="236.4" width="236.4" x="-2019.8" y="-579.8"></sliceSourceBounds>
	</sfw>
</metadata>
<path class="st0" d="M196.4,236.4H40c-22,0-40-18-40-40V40C0,18,18,0,40,0h156.4c22,0,40,18,40,40v156.4
	C236.4,218.4,218.4,236.4,196.4,236.4z"/>
<linearGradient id="SVGID_1_" gradientUnits="userSpaceOnUse" x1="36.6114" y1="118.211" x2="199.8106" y2="118.211">
	<stop  offset="0" style="stop-color:#FF2F68"/>
	<stop  offset="0.6765" style="stop-color:#81293F"/>
	<stop  offset="1" style="stop-color:#4A272D"/>
</linearGradient>
<path class="st1" d="M184.9,35H51.5c-8.2,0-14.9,6.7-14.9,14.9v0v98.6c0,8.2,6.7,14.9,14.9,14.9H89l11.6,33c1.3,3.8,5.5,5.9,9.3,4.6
	c1.5-0.5,2.8-1.5,3.7-2.8l24.6-34.8h46.7c8.2,0,14.9-6.7,14.9-14.9V49.9C199.8,41.7,193.2,35,184.9,35C184.9,35,184.9,35,184.9,35z
	 M101.1,122.2c0,1.4-1.1,2.5-2.5,2.5h-22l8.5-43.2h13.5c1.4,0,2.5,1.1,2.5,2.5c0,0,0,0,0,0L101.1,122.2z M154.9,105.3v0.4
	c2.7,1.7,3.4,5.3,1.7,8c-1,1.6-2.8,2.6-4.8,2.6h-0.5c0.9,0.9,1.5,2.1,1.5,3.4c-0.1,2.3-1.8,4.3-4.1,4.8l-0.6,0.1h-2.2
	c-6.7,0-23.1,0-23.1,0s-3,0.5-9.6-2.3c-6.6-2.8-8.7-1.7-8.5-10.4s0-18.6,0-18.6c-0.4-4.2,1.1-8.4,4.1-11.4
	c5.3-5.1,9.4-11.4,11.9-18.3c1.6-5.4,1.5-10.1,6.3-11.5c4.8-1.4,6.3,4.5,6.3,4.5s2.1,4-0.6,12c-2.7,8-6,12.6-1.6,12.7
	c4.5,0.1,22.6,0.4,22.6,0.4c1.4,0.2,2.6,0.8,3.6,1.8c0.9,0.9,1.5,2.2,1.5,3.5c-0.1,2.4-1.7,4.5-4,5.1v0.5c3.5,0.9,5.6,4.4,4.8,7.9
	C159,102.9,157.2,104.7,154.9,105.3z"/>
</svg>
